<?xml version="1.0" encoding="UTF-8" standalone="no"?>
<!-- Created with Inkscape (http://www.inkscape.org/) -->

<svg
   xmlns:dc="http://purl.org/dc/elements/1.1/"
   xmlns:cc="http://creativecommons.org/ns#"
   xmlns:rdf="http://www.w3.org/1999/02/22-rdf-syntax-ns#"
   xmlns:svg="http://www.w3.org/2000/svg"
   xmlns="http://www.w3.org/2000/svg"
   xmlns:sodipodi="http://sodipodi.sourceforge.net/DTD/sodipodi-0.dtd"
   xmlns:inkscape="http://www.inkscape.org/namespaces/inkscape"
   version="1.1"
   id="svg2"
   xml:space="preserve"
   width="600"
   height="100"
   viewBox="0 0 599.99998 100"
   sodipodi:docname="globaleaks-logo-color.svg"
   inkscape:version="0.92.4 (5da689c313, 2019-01-14)"
   inkscape:export-filename="/home/evilaliv3/Development/GlobaLeaks/assets/globaleaks-logo-color.png"
   inkscape:export-xdpi="96"
   inkscape:export-ydpi="96"><metadata
     id="metadata8"><rdf:RDF><cc:Work
         rdf:about=""><dc:format>image/svg+xml</dc:format><dc:type
           rdf:resource="http://purl.org/dc/dcmitype/StillImage" /><dc:title /></cc:Work></rdf:RDF></metadata><defs
     id="defs6"><clipPath
       clipPathUnits="userSpaceOnUse"
       id="clipPath18"><path
         d="M 0,0 H 842 V 595 H 0 Z"
         id="path16"
         inkscape:connector-curvature="0" /></clipPath><mask
       maskUnits="userSpaceOnUse"
       x="0"
       y="0"
       width="1"
       height="1"
       id="mask20"><g
         id="g28"><g
           clip-path="url(#clipPath18)"
           id="g26"><g
             transform="rotate(90,297.49999,297.50001)"
             id="g24"><path
               d="M 0,595 H 595 V -247 H 0 Z"
               style="fill:#000000;fill-opacity:1;fill-rule:nonzero;stroke:none"
               id="path22"
               inkscape:connector-curvature="0" /></g></g></g></mask><clipPath
       clipPathUnits="userSpaceOnUse"
       id="clipPath36"><path
         d="M 0,0 H 842 V 595 H 0 Z"
         id="path34"
         inkscape:connector-curvature="0" /></clipPath><clipPath
       clipPathUnits="userSpaceOnUse"
       id="clipPath40"><path
         d="M 0,0 H 842 V 595 H 0 Z"
         id="path38"
         inkscape:connector-curvature="0" /></clipPath><clipPath
       clipPathUnits="userSpaceOnUse"
       id="clipPath44"><path
         d="M 0,0 H 842 V 595 H 0 Z"
         id="path42"
         inkscape:connector-curvature="0" /></clipPath><clipPath
       clipPathUnits="userSpaceOnUse"
       id="clipPath48"><path
         d="M 0,0 H 842 V 595 H 0 Z"
         id="path46"
         inkscape:connector-curvature="0" /></clipPath><clipPath
       clipPathUnits="userSpaceOnUse"
       id="clipPath52"><path
         d="M 0,0 H 842 V 595 H 0 Z"
         id="path50"
         inkscape:connector-curvature="0" /></clipPath><clipPath
       clipPathUnits="userSpaceOnUse"
       id="clipPath56"><path
         d="M 0,0 H 842 V 595 H 0 Z"
         id="path54"
         inkscape:connector-curvature="0" /></clipPath></defs><sodipodi:namedview
     pagecolor="#ffffff"
     bordercolor="#666666"
     borderopacity="1"
     objecttolerance="10"
     gridtolerance="10"
     guidetolerance="10"
     inkscape:pageopacity="0"
     inkscape:pageshadow="2"
     inkscape:window-width="1920"
     inkscape:window-height="1080"
     id="namedview4"
     showgrid="false"
     inkscape:zoom="0.84139767"
     inkscape:cx="259.3273"
     inkscape:cy="415.02887"
     inkscape:window-x="0"
     inkscape:window-y="0"
     inkscape:window-maximized="0"
     inkscape:current-layer="g10"
     fit-margin-top="0"
     fit-margin-left="0"
     fit-margin-right="0"
     fit-margin-bottom="0" /><g
     id="g10"
     inkscape:groupmode="layer"
     inkscape:label="brand_guidelines"
     transform="matrix(1.3333333,0,0,-1.3333333,130,81.637807)"><g
       transform="matrix(2.1609088,0,0,2.1609088,7.0969992,6.9811845)"
       id="g84"><path
         d="m 7.599976,6.000061 h 3.300048 V 4.100037 c -0.8,-0.5 -1.700098,-0.799988 -2.600097,-0.799988 -2.4,0 -4.399903,2 -4.399903,4.5 0,2.399999 1.999903,4.5 4.399903,4.5 1.3,0 2.7,-0.599976 3.5,-1.599976 l 2.800049,2.5 c -1.600001,1.600001 -3.90005,2.599976 -6.300049,2.599976 C 3.799927,15.800049 0,12.200086 0,7.900085 0,3.600085 3.799927,6.1e-5 8.299927,6.1e-5 c 2.399999,0 4.700048,0.999975 6.300049,2.599976 v 6.400024 h -7 z"
         style="fill:#184e83;fill-opacity:1;fill-rule:nonzero;stroke:none"
         id="path82"
         inkscape:connector-curvature="0" /></g><g
       transform="matrix(2.1609088,0,0,2.1609088,43.832449,7.1974698)"
       id="g88"><path
         d="M 3.799927,3.400024 V 15.300049 H 0 V 0 h 11.199951 v 3.400024 z"
         style="fill:#184e83;fill-opacity:1;fill-rule:nonzero;stroke:none"
         id="path86"
         inkscape:connector-curvature="0" /></g><g
       transform="matrix(2.1609088,0,0,2.1609088,71.059856,6.7648775)"
       id="g92"><path
         d="m 8.199951,6.1e-5 c 4.5,0 8.200073,3.599963 8.200073,7.899963 0,4.300001 -3.800073,7.900025 -8.200073,7.900025 C 3.699951,15.800049 0,12.200025 0,7.900024 0,3.600024 3.799951,6.1e-5 8.199951,6.1e-5 Z m 0,3.399963 c -2.3,0 -4.299927,2 -4.299927,4.5 0,2.4 1.999927,4.5 4.299927,4.5 2.3,0 4.300049,-2 4.300049,-4.5 0.1,-2.399999 -1.900049,-4.5 -4.300049,-4.5 z"
         style="fill:#184e83;fill-opacity:1;fill-rule:nonzero;stroke:none"
         id="path90"
         inkscape:connector-curvature="0" /></g><g
       transform="matrix(2.1609088,0,0,2.1609088,111.68503,7.1974698)"
       id="g96"><path
         d="M 0,0 H 8.299927 C 11.299927,0 13.5,1.700037 13.5,4.100037 13.5,5.800036 12.499951,7.2 10.699951,8 c 1.3,0.7 2.099976,1.900024 2.099976,3.400024 0,2.2 -1.999927,3.900025 -4.799927,3.900025 H 0 Z m 3.799927,9.300049 v 2.799988 h 3.300049 c 1,0 1.799926,-0.600025 1.799926,-1.400025 0,-0.8 -0.799926,-1.399963 -1.799926,-1.399963 z m 0,-6 v 3.099975 h 3.900024 c 1.100001,0 1.900025,-0.6 1.900025,-1.5 0,-0.899999 -0.800024,-1.5 -1.900025,-1.5 H 3.799927 Z"
         style="fill:#184e83;fill-opacity:1;fill-rule:nonzero;stroke:none"
         id="path94"
         inkscape:connector-curvature="0" /></g><g
       transform="matrix(2.1609088,0,0,2.1609088,142.58587,7.1974698)"
       id="g100"><path
         d="M 12.200073,0 H 16.5 L 10.400024,15.300049 H 6.099976 L 0,0 h 4.300049 l 0.900024,2.200012 h 6.099976 z M 6.400024,5.200012 8.200073,9.900024 10,5.200012 Z"
         style="fill:#184e83;fill-opacity:1;fill-rule:nonzero;stroke:none"
         id="path98"
         inkscape:connector-curvature="0" /></g><g
       transform="matrix(2.1609088,0,0,2.1609088,181.48223,7.1974698)"
       id="g104"><path
         d="M 3.800049,3.400024 V 15.300049 H 0 V 0 h 11.200073 v 3.400024 z"
         style="fill:#184e83;fill-opacity:1;fill-rule:nonzero;stroke:none"
         id="path102"
         inkscape:connector-curvature="0" /></g><g
       transform="matrix(2.1609088,0,0,2.1609088,210.00638,7.1974698)"
       id="g108"><path
         d="m 12,11.900024 v 3.400025 H 0 V 0 H 12 V 3.400024 H 3.799927 v 2.700013 h 7.5 V 9.5 h -7.5 v 2.400024 z"
         style="fill:#184e83;fill-opacity:1;fill-rule:nonzero;stroke:none"
         id="path106"
         inkscape:connector-curvature="0" /></g><g
       transform="matrix(2.1609088,0,0,2.1609088,238.09819,7.1974698)"
       id="g112"><path
         d="M 12.199951,0 H 16.5 L 10.399902,15.300049 H 6.099976 L 0,0 h 4.299927 l 0.900024,2.200012 h 6.099976 z M 6.399902,5.200012 8.199951,9.900024 10,5.200012 Z"
         style="fill:#184e83;fill-opacity:1;fill-rule:nonzero;stroke:none"
         id="path110"
         inkscape:connector-curvature="0" /></g><g
       transform="matrix(2.1609088,0,0,2.1609088,277.2106,7.1974698)"
       id="g116"><path
         d="M 0,0 H 3.799927 V 4.200012 L 5.599976,6.100037 9.900024,0 H 14.5 L 8.199951,8.800049 14,15.300049 H 9.5 l -5.700073,-6.5 v 6.5 H 0 Z"
         style="fill:#184e83;fill-opacity:1;fill-rule:nonzero;stroke:none"
         id="path114"
         inkscape:connector-curvature="0" /></g><g
       transform="matrix(2.1609088,0,0,2.1609088,308.97585,6.7648775)"
       id="g120"><path
         d="m 7.099976,6.1e-5 c 3.8,0 6.100097,1.9 6.100097,5 0,2.9 -2.200098,3.899976 -5.600097,4.599976 -2.300001,0.5 -3,0.800012 -3,1.700012 0,0.8 0.700024,1.299988 1.900024,1.299988 1.4,0 3.000025,-0.599976 4.400024,-1.599976 l 1.900025,2.699951 c -1.600001,1.4 -3.600073,2.100037 -6.200073,2.100037 -3.5,0 -5.899903,-2.000025 -5.899903,-4.900025 0,-3.1 2.399951,-4.000012 5.699951,-4.700012 2.2,-0.5 2.900025,-0.699976 2.900025,-1.599975 0,-0.800001 -0.700073,-1.400025 -2.200073,-1.400025 -1.900001,0 -3.5,0.700025 -5,1.900025 L 0,2.500061 c 1.9,-1.6 4.299975,-2.5 7.099976,-2.5 z"
         style="fill:#184e83;fill-opacity:1;fill-rule:nonzero;stroke:none"
         id="path118"
         inkscape:connector-curvature="0" /></g><g
       transform="matrix(2.1609088,0,0,2.1609088,-53.358055,-8.7935578)"
       id="g124"><path
         d="m 10.976665,30.100098 h 3.199952 c 1.399999,0 2.5,-1.100001 2.5,-2.5 V 2.500122 c 0,-1.4 -1.100001,-2.5 -2.5,-2.5 H 7.876689 L 9.776592,5.30011 c 0.2,0.6 -0.099951,1.200001 -0.699951,1.5 -0.1,0 -0.200048,0.099975 -0.300049,0.099975 -0.1,0 -0.199902,0 -0.399902,0 -0.4,-0.1 -0.700049,-0.399951 -0.800049,-0.699951 L 7.176616,5.100098 v 4.5 c 0,0.7 -0.499951,1.299999 -1.199951,1.5 H 5.876689 c -0.099999,0 -0.100073,0 -0.200073,0 -0.1,0 -0.099951,0 -0.199951,0 H 5.376689 5.276592 5.176616 c -0.2,-0.100001 -0.3,-0.199988 -0.5,-0.299988 v 0.299988 c 0,0.399999 -0.200024,0.7 -0.400024,1 l -0.099976,0.100036 c -0.1,0.100001 -0.199927,0.09995 -0.299927,0.199951 v 1.800049 c 0,0.3 -0.300097,0.599976 -0.600097,0.599976 H 0.576641 c -0.5,0 -0.7,0.500025 -0.5,0.900024 L 5.476665,26.80011 c 1.1,1.899999 3.100001,3.199987 5.5,3.299988 z m -1.900024,-10 c 0.7,0 1.300049,0.599987 1.300049,1.299987 0,0.700001 -0.600049,1.300049 -1.300049,1.300049 -0.7,0 -1.300049,-0.600048 -1.300049,-1.300049 0,-0.7 0.600049,-1.299987 1.300049,-1.299987 z"
         style="fill:#184e83;fill-opacity:1;fill-rule:evenodd;stroke:none"
         id="path122"
         inkscape:connector-curvature="0" /></g><g
       transform="matrix(2.1609088,0,0,2.1609088,-82.500006,-8.5772725)"
       id="g128"><path
         d="M 18.362698,27.799988 C 18.462698,28.899988 17.662674,30 16.462673,30 H 10.7626 c -2.4,0 -4.599975,-1.4 -5.599975,-3.5 L 0.062649,16.100037 c -0.2,-0.4 0.099976,-0.900025 0.599976,-0.900025 h 2.200073 c 0.4,0 0.699975,-0.399988 0.599975,-0.799988 L 2.862698,12.200012 c 0,0 -2.4e-5,-0.09997 0.099975,-0.09997 1.7,0 3.000001,-1.4 3.000001,-3 V 8.799993 c 0,-1.700001 -1.300001,-3 -3.000001,-3 H 1.7626 c -0.1,0 -0.199951,0 -0.199951,0 -0.2,0 -0.4,-0.099987 -0.5,-0.299988 C 0.262649,2.799999 2.362625,0 5.162625,0 h 6.400024 v 7.100037 c 0,0.6 0.499975,1.199951 1.099975,1.199951 h 0.09998 0.100098 v 1.300049 c 0,0.799999 0.699999,1.5 1.5,1.5 0.399999,0 0.699999,-0.100026 1,-0.400025 v 0.200012 c 0,0.600001 0.399902,1.099987 0.899902,1.299988 v 1.099976 h -2 c -1.4,0 -2.199976,1.400012 -1.599976,2.700012 l 5.400025,11.100037 c 0,0.2 0.200048,0.49995 0.300049,0.699951 z M 8.962673,20 c 0.7,0 1.299927,0.599987 1.299927,1.299988 0,0.700001 -0.599927,1.300049 -1.299927,1.300049 -0.7,0 -1.300048,-0.600048 -1.300048,-1.300049 C 7.762625,20.499989 8.362673,20 8.962673,20 Z"
         style="fill:#3676bb;fill-opacity:1;fill-rule:evenodd;stroke:none"
         id="path126"
         inkscape:connector-curvature="0" /></g><path
       style="fill:#103253;fill-opacity:1;stroke:#ffffff;stroke-width:0;stroke-miterlimit:4;stroke-dasharray:none;stroke-dashoffset:0;stroke-opacity:0"
       d="m 82.478698,92.313617 c 0,-0.302637 1.069649,-3.263972 2.376997,-6.580741 3.751056,-9.516505 2.563467,-14.438648 -2.971246,-12.314779 -1.421343,0.54542 -1.782748,-0.39639 -1.782748,-4.64577 0,-5.49517 -1.255318,-7.423696 -5.323684,-8.178702 -2.081174,-0.386223 -3.110142,-2.281148 -4.903447,-9.030085 -0.233179,-0.877543 -2.355883,-1.485624 -5.186051,-1.485624 -2.635213,0 -4.791296,-0.484243 -4.791296,-1.076095 0,-0.591853 3.762124,-8.858281 8.360276,-18.369842 C 78.364896,9.7242054 80.080182,8.1135423 92.929648,7.4646736 107.09009,6.7496039 106.24867,4.0575577 106.24867,50.077916 c 0,45.978282 1.04892,42.785952 -14.058442,42.785952 -5.341341,0 -9.71153,-0.247613 -9.71153,-0.550251 z m 6.025173,-58.380056 c 2.111303,-2.543965 -0.01241,-5.84287 -3.761429,-5.84287 -2.909932,0 -4.261779,2.712854 -2.995809,6.011917 0.875034,2.280306 4.806074,2.181963 6.757238,-0.169047 z"
       id="path1697"
       inkscape:connector-curvature="0"
       transform="matrix(0.75000002,0,0,-0.75000002,-97.500002,61.228357)" /><path
       style="fill:#103253;fill-opacity:1;stroke:#ffffff;stroke-width:0;stroke-miterlimit:4;stroke-dasharray:none;stroke-dashoffset:0;stroke-opacity:0"
       d="m 152.57072,68.79677 c -3.00454,-1.519657 -6.76339,-4.799639 -8.70673,-7.597524 -9.1787,-13.214833 0.28057,-31.82236 16.9935,-33.428261 6.52258,-0.626737 15.28323,1.933217 18.05814,5.276784 1.31147,1.58022 1.02462,2.2751 -1.90269,4.609258 -3.08759,2.461955 -3.7001,2.571216 -5.87485,1.04796 -1.33534,-0.935306 -4.70716,-1.700556 -7.49293,-1.700556 -3.91708,0 -5.94474,0.786005 -8.94642,3.468005 -5.6985,5.091612 -5.6985,14.119348 0,19.210961 6.23119,5.567563 16.91736,4.35346 16.91736,-1.922056 0,-2.625336 -0.4935,-2.92943 -4.754,-2.92943 -4.6408,0 -4.75399,-0.09904 -4.75399,-4.159745 V 46.51242 h 9.50799 9.50799 v 9.319103 9.319102 l -5.80621,3.160134 c -7.44002,4.049365 -15.36713,4.218735 -22.74716,0.486011 z"
       id="path1699"
       inkscape:connector-curvature="0"
       transform="matrix(0.75000002,0,0,-0.75000002,-97.500002,61.228357)" /><path
       style="fill:#103253;fill-opacity:1;stroke:#ffffff;stroke-width:0;stroke-miterlimit:4;stroke-dasharray:none;stroke-dashoffset:0;stroke-opacity:0"
       d="M 189.44358,50.077916 V 28.684941 h 4.75399 4.754 v 17.23323 17.23323 h 10.69648 10.69649 v 4.159746 4.159745 h -15.45048 -15.45048 z"
       id="path1701"
       inkscape:connector-curvature="0"
       transform="matrix(0.75000002,0,0,-0.75000002,-97.500002,61.228357)" /><path
       style="fill:#103253;fill-opacity:1;stroke:#ffffff;stroke-width:0;stroke-miterlimit:4;stroke-dasharray:none;stroke-dashoffset:0;stroke-opacity:0"
       d="m 237.57777,69.240047 c -13.9186,-8.67385 -16.2605,-24.330582 -5.21496,-34.864637 8.34593,-7.959467 20.23032,-8.760626 29.57202,-1.993531 12.7588,9.242427 12.25816,27.255918 -0.99104,35.658312 -6.72685,4.266041 -17.55369,4.822004 -23.36602,1.199856 z m 16.41999,-7.416246 c 7.11399,-3.638125 9.29471,-14.651936 4.08161,-20.614291 -5.55398,-6.35223 -15.81087,-5.893712 -19.94817,0.891752 -3.71358,6.090512 -3.1009,12.203625 1.70472,17.009244 4.32047,4.32047 9.19354,5.25411 14.16184,2.713295 z"
       id="path1703"
       inkscape:connector-curvature="0"
       transform="matrix(0.75000002,0,0,-0.75000002,-97.500002,61.228357)" /><path
       style="fill:#103253;fill-opacity:1;stroke:#ffffff;stroke-width:0;stroke-miterlimit:4;stroke-dasharray:none;stroke-dashoffset:0;stroke-opacity:0"
       d="M 279.76947,50.077916 V 28.684941 h 13.13251 c 14.89085,0 18.93654,1.343129 21.31074,7.074944 1.68841,4.07618 0.0546,9.951757 -3.28738,11.822005 -1.49378,0.835962 -1.13397,1.617509 2.05746,4.469049 3.06038,2.73445 3.86783,4.38462 3.86783,7.904578 0,8.864563 -5.51772,11.515375 -23.9695,11.515375 h -13.11166 z m 23.43349,12.334685 c 3.49381,-0.936645 4.69532,-4.919709 2.22826,-7.386778 -1.31067,-1.310665 -4.07791,-1.927316 -8.73877,-1.947347 l -6.82074,-0.02931 -0.36546,5.051119 -0.36546,5.051119 5.71371,-0.01623 c 3.14253,-0.0089 6.89934,-0.334083 8.34846,-0.722573 z m 1.33185,-20.519768 c 0.53057,-3.752488 -1.49839,-4.848271 -9.01773,-4.870203 l -6.23962,-0.0182 v 4.216457 4.216458 l 7.42812,-0.353837 c 6.80541,-0.324174 7.46174,-0.59165 7.82923,-3.190675 z"
       id="path1705"
       inkscape:connector-curvature="0"
       transform="matrix(0.75000002,0,0,-0.75000002,-97.500002,61.228357)" /><path
       style="fill:#103253;fill-opacity:1;stroke:#ffffff;stroke-width:0;stroke-miterlimit:4;stroke-dasharray:none;stroke-dashoffset:0;stroke-opacity:0"
       d="m 321.86809,69.387171 c 0.36375,-1.146047 4.09182,-10.63918 8.28462,-21.095851 l 7.62326,-19.01213 h 6.18473 6.18474 l 8.18018,20.798726 c 4.4991,11.4393 8.1856,20.932433 8.19222,21.095851 0.007,0.163419 -2.40614,0.297125 -5.36169,0.297125 -4.57863,0 -5.57403,-0.439624 -6.72751,-2.971247 -1.27296,-2.793841 -1.89871,-2.971246 -10.48024,-2.971246 -8.58153,0 -9.20727,0.177405 -10.48023,2.971246 -1.15776,2.540987 -2.14355,2.971247 -6.80761,2.971247 -4.65709,0 -5.3572,-0.304402 -4.79247,-2.083721 z m 26.40342,-14.92174 c -0.95446,-3.802865 -4.38354,-11.867711 -4.82583,-11.349842 -0.1999,0.234071 -1.49813,3.500825 -2.88494,7.259452 l -2.52147,6.833867 h 5.46041 c 5.11007,0 5.41622,-0.176018 4.77183,-2.743477 z"
       id="path1707"
       inkscape:connector-curvature="0"
       transform="matrix(0.75000002,0,0,-0.75000002,-97.500002,61.228357)" /><path
       style="fill:#103253;fill-opacity:1;stroke:#ffffff;stroke-width:0;stroke-miterlimit:4;stroke-dasharray:none;stroke-dashoffset:0;stroke-opacity:0"
       d="M 372.47237,50.077916 V 28.684941 h 4.72136 4.72136 l 0.32976,16.936105 0.32976,16.936106 10.39936,0.343397 10.39936,0.343396 v 4.113474 4.113473 h -15.45048 -15.45048 z"
       id="path1709"
       inkscape:connector-curvature="0"
       transform="matrix(0.75000002,0,0,-0.75000002,-97.500002,61.228357)" /><path
       style="fill:#103253;fill-opacity:1;stroke:#ffffff;stroke-width:0;stroke-miterlimit:4;stroke-dasharray:none;stroke-dashoffset:0;stroke-opacity:0"
       d="M 410.50433,50.077916 V 28.684941 h 16.63898 16.63898 v 4.159745 4.159745 H 431.8973 420.01232 v 4.159745 4.159746 h 11.29073 11.29074 v 4.159745 4.159745 h -11.36248 -11.36248 l 0.36887,4.45687 0.36886,4.45687 11.58787,0.340163 11.58786,0.340162 v 4.116708 4.116707 h -16.63898 -16.63898 z"
       id="path1711"
       inkscape:connector-curvature="0"
       transform="matrix(0.75000002,0,0,-0.75000002,-97.500002,61.228357)" /><path
       style="fill:#103253;fill-opacity:1;stroke:#ffffff;stroke-width:0;stroke-miterlimit:4;stroke-dasharray:none;stroke-dashoffset:0;stroke-opacity:0"
       d="m 448.86896,69.985269 c 0.32285,-0.817093 4.18917,-10.469616 8.59184,-21.450051 l 8.00485,-19.964427 5.91826,0.354199 5.91826,0.3542 7.61727,19.01213 c 10.30723,25.726054 9.92468,23.179572 3.48222,23.179572 -4.72802,0 -5.60879,-0.39727 -6.58741,-2.971247 -1.07281,-2.821687 -1.60014,-2.971246 -10.4763,-2.971246 -8.8164,0 -9.42344,0.168559 -10.70043,2.971246 -1.1602,2.546364 -2.14041,2.971247 -6.85467,2.971247 -3.92143,0 -5.33234,-0.426562 -4.91389,-1.485623 z M 474.58091,50.96929 c -1.34456,-3.43179 -2.81344,-6.619917 -3.26419,-7.084728 -0.45074,-0.464811 -1.98066,2.343017 -3.39981,6.239618 l -2.58028,7.084728 h 5.84447 5.84447 z"
       id="path1713"
       inkscape:connector-curvature="0"
       transform="matrix(0.75000002,0,0,-0.75000002,-97.500002,61.228357)" /><path
       style="fill:#103253;fill-opacity:1;stroke:#ffffff;stroke-width:0;stroke-miterlimit:4;stroke-dasharray:none;stroke-dashoffset:0;stroke-opacity:0"
       d="M 499.64173,50.077916 V 28.684941 h 5.34824 5.34824 l 0.0471,9.210864 0.0471,9.210865 8.57376,-9.293509 c 8.48583,-9.198183 8.62819,-9.289614 13.87909,-8.91374 l 5.30532,0.379769 -7.38949,8.142205 c -4.06422,4.478212 -7.38949,8.673569 -7.38949,9.323012 0,0.93646 9.83801,15.408194 15.79934,23.240862 0.86898,1.141758 -0.26199,1.485623 -4.8862,1.485623 h -6.01689 l -6.19044,-8.954795 -6.19045,-8.954796 -2.79442,2.625225 c -2.25514,2.118592 -2.79443,3.846748 -2.79443,8.954795 v 6.329571 h -5.34824 -5.34824 z"
       id="path1715"
       inkscape:connector-curvature="0"
       transform="matrix(0.75000002,0,0,-0.75000002,-97.500002,61.228357)" /><path
       style="fill:#103253;fill-opacity:1;stroke:#ffffff;stroke-width:0;stroke-miterlimit:4;stroke-dasharray:none;stroke-dashoffset:0;stroke-opacity:0"
       d="m 548.66729,69.030999 c -5.63569,-2.859067 -6.18865,-4.481739 -2.62595,-7.705938 2.32929,-2.107974 2.56592,-2.111604 5.98518,-0.09179 4.66897,2.758024 13.48556,3.113057 15.95609,0.642532 3.27104,-3.271048 0.9125,-5.520807 -8.10426,-7.730481 -10.10549,-2.476478 -15.07368,-6.548436 -15.07368,-12.354491 0,-12.326498 14.68101,-17.968412 28.99472,-11.142679 4.93416,2.352936 4.96977,2.466636 1.91877,6.126525 -2.27279,2.726377 -2.31707,2.730238 -8.03228,0.700372 -6.22679,-2.211559 -11.81675,-1.623928 -12.96282,1.362685 -1.0717,2.79279 1.66594,5.036244 7.73351,6.337506 3.08644,0.661922 7.01134,1.735636 8.72201,2.38603 8.58987,3.265862 10.80003,12.522447 4.63688,19.420206 -3.26729,3.656728 -3.9638,3.887864 -12.77636,4.239801 -7.68026,0.306718 -10.20968,-0.07877 -14.37181,-2.190275 z"
       id="path1717"
       inkscape:connector-curvature="0"
       transform="matrix(0.75000002,0,0,-0.75000002,-97.500002,61.228357)" /></g></svg>