<?xml version="1.0" encoding="UTF-8" standalone="no"?>
<!-- Created with Inkscape (http://www.inkscape.org/) -->

<svg
   xmlns:dc="http://purl.org/dc/elements/1.1/"
   xmlns:cc="http://creativecommons.org/ns#"
   xmlns:rdf="http://www.w3.org/1999/02/22-rdf-syntax-ns#"
   xmlns:svg="http://www.w3.org/2000/svg"
   xmlns="http://www.w3.org/2000/svg"
   xmlns:sodipodi="http://sodipodi.sourceforge.net/DTD/sodipodi-0.dtd"
   xmlns:inkscape="http://www.inkscape.org/namespaces/inkscape"
   version="1.1"
   id="svg2"
   xml:space="preserve"
   width="300"
   height="50"
   viewBox="0 0 299.99999 50"
   sodipodi:docname="globaleaks-logo-white.svg"
   inkscape:version="0.92.4 (5da689c313, 2019-01-14)"><metadata
     id="metadata8"><rdf:RDF><cc:Work
         rdf:about=""><dc:format>image/svg+xml</dc:format><dc:type
           rdf:resource="http://purl.org/dc/dcmitype/StillImage" /><dc:title></dc:title></cc:Work></rdf:RDF></metadata><defs
     id="defs6"><clipPath
       clipPathUnits="userSpaceOnUse"
       id="clipPath18"><path
         d="M 0,0 H 842 V 595.00006 H 0 Z"
         id="path16"
         inkscape:connector-curvature="0" /></clipPath><mask
       maskUnits="userSpaceOnUse"
       x="0"
       y="0"
       width="1"
       height="1"
       id="mask20"><g
         id="g28"><g
           clip-path="url(#clipPath18)"
           id="g26"><g
             transform="rotate(90,297.50005,297.50007)"
             id="g24"><path
               d="m 0,595.00006 h 595 v -842 H 0 Z"
               style="fill:#000000;fill-opacity:1;fill-rule:nonzero;stroke:none"
               id="path22"
               inkscape:connector-curvature="0" /></g></g></g></mask><clipPath
       clipPathUnits="userSpaceOnUse"
       id="clipPath36"><path
         d="M 0,0 H 842 V 595.00006 H 0 Z"
         id="path34"
         inkscape:connector-curvature="0" /></clipPath><clipPath
       clipPathUnits="userSpaceOnUse"
       id="clipPath40"><path
         d="M 0,0 H 842 V 595.00006 H 0 Z"
         id="path38"
         inkscape:connector-curvature="0" /></clipPath></defs><sodipodi:namedview
     pagecolor="#ffffff"
     bordercolor="#666666"
     borderopacity="1"
     objecttolerance="10"
     gridtolerance="10"
     guidetolerance="10"
     inkscape:pageopacity="0"
     inkscape:pageshadow="2"
     inkscape:window-width="1920"
     inkscape:window-height="1080"
     id="namedview4"
     showgrid="false"
     inkscape:zoom="0.84139754"
     inkscape:cx="164.66666"
     inkscape:cy="396.66672"
     inkscape:window-x="0"
     inkscape:window-y="0"
     inkscape:window-maximized="0"
     inkscape:current-layer="g10" /><g
     id="g10"
     inkscape:groupmode="layer"
     inkscape:label="brand_guidelines"
     transform="matrix(1.3333333,0,0,-1.3333333,0,49.999975)"><g
       transform="matrix(0.93142217,0,0,0.93142217,-489.32766,-66.33544)"
       id="g3543"><g
         id="g2977"><path
           inkscape:connector-curvature="0"
           id="path460"
           style="fill:#ffffff;fill-opacity:1;fill-rule:nonzero;stroke:none"
           d="m 590.26928,89.399933 h 3.80005 v -2.199952 c -0.9,-0.6 -1.9,-0.899902 -3,-0.899902 -2.8,0 -5.09997,2.399951 -5.09997,5.199951 0,2.8 2.39997,5.199951 5.09997,5.199951 1.5,0 3.1,-0.699902 4,-1.899902 l 3.19995,2.899902 c -1.8,1.9 -4.49992,2.999999 -7.29992,2.999999 -5.2,0 -9.6001,-4.19995 -9.6001,-9.19995 0,-5 4.4001,-9.199951 9.6001,-9.199951 2.7,0 5.49992,1.099854 7.29992,3.099854 v 7.400146 h -8.09997 v -3.400146 z" /><path
           inkscape:connector-curvature="0"
           id="path464"
           style="fill:#ffffff;fill-opacity:1;fill-rule:nonzero;stroke:none"
           d="m 605.66931,86.50003 v 13.80005 h -4.40002 V 82.600128 h 12.90002 v 4 h -8.5 z" /><path
           inkscape:connector-curvature="0"
           id="path468"
           style="fill:#ffffff;fill-opacity:1;fill-rule:nonzero;stroke:none"
           d="m 625.36926,82.199982 c 5.2,0 9.6001,4.199951 9.6001,9.199951 0,5 -4.4001,9.200197 -9.6001,9.200197 -5.2,0 -9.5,-4.200197 -9.5,-9.200197 0,-5 4.4,-9.199951 9.5,-9.199951 z m 0,4 c -2.7,0 -5,2.399951 -5,5.199951 0,2.8 2.3,5.200195 5,5.200195 2.7,0 5,-2.400195 5,-5.200195 0,-2.8 -2.3,-5.199951 -5,-5.199951 z" /><path
           inkscape:connector-curvature="0"
           id="path472"
           style="fill:#ffffff;fill-opacity:1;fill-rule:nonzero;stroke:none"
           d="m 637.66932,82.500031 h 9.59997 c 3.5,0 6,2.000049 6,4.800049 0,1.899999 -1.19992,3.6 -3.29993,4.5 1.5,0.8 2.5,2.2 2.5,4 0,2.6 -2.30009,4.5 -5.60009,4.5 h -9.29993 V 82.500031 Z m 4.40002,10.800049 v 3.300049 h 3.79993 c 1.2,0 2.10009,-0.700098 2.10009,-1.600098 0,-0.9 -0.90009,-1.699951 -2.10009,-1.699951 z m 0,-7 v 3.599853 h 4.5 c 1.3,0 2.19995,-0.699804 2.19995,-1.799804 0,-1.100001 -0.89995,-1.800049 -2.19995,-1.800049 z" /><path
           inkscape:connector-curvature="0"
           id="path476"
           style="fill:#ffffff;fill-opacity:1;fill-rule:nonzero;stroke:none"
           d="m 668.36926,82.500031 h 5 l -7,17.699949 h -5 l -7,-17.699949 h 5 l 1,2.600098 h 7 z m -6.69995,6.100098 2.09997,5.5 2.09998,-5.5 z" /><path
           inkscape:connector-curvature="0"
           id="path480"
           style="fill:#ffffff;fill-opacity:1;fill-rule:nonzero;stroke:none"
           d="m 679.46936,86.50003 v 13.80005 h -4.40002 V 82.600128 h 12.90002 v 4 h -8.5 z" /><path
           inkscape:connector-curvature="0"
           id="path484"
           style="fill:#ffffff;fill-opacity:1;fill-rule:nonzero;stroke:none"
           d="m 704.36926,96.300079 v 4.000001 h -14 V 82.600128 h 14 v 4 h -9.59998 v 3.099854 h 8.70008 v 4 h -8.70008 v 2.800048 h 9.59998 z" /><path
           inkscape:connector-curvature="0"
           id="path488"
           style="fill:#ffffff;fill-opacity:1;fill-rule:nonzero;stroke:none"
           d="m 719.66931,82.500031 h 5 l -7,17.699949 h -5 l -7,-17.699949 h 5 l 1,2.600098 h 7 z m -6.69995,6.100098 2.09997,5.5 2.09998,-5.5 z" /><path
           inkscape:connector-curvature="0"
           id="path492"
           style="fill:#ffffff;fill-opacity:1;fill-rule:nonzero;stroke:none"
           d="m 726.46936,82.500031 h 4.3999 v 4.800049 l 2,2.199951 5,-7 h 5.30005 l -7.30005,10.199951 6.70007,7.499998 h -5.20007 l -6.59998,-7.599851 v 7.599851 h -4.40002 V 82.500031 Z" /><path
           inkscape:connector-curvature="0"
           id="path496"
           style="fill:#ffffff;fill-opacity:1;fill-rule:nonzero;stroke:none"
           d="m 751.76929,82.199982 c 4.4,0 7.09998,2.200048 7.09998,5.800049 0,3.3 -2.6,4.500048 -6.5,5.300049 -2.6,0.6 -3.5,0.899999 -3.5,2 0,0.899999 0.80007,1.5 2.20007,1.5 1.7,0 3.39998,-0.600147 5.09998,-1.900147 l 2.19995,3.200195 c -1.9,1.600001 -4.19995,2.399902 -7.19995,2.399902 -4.1,0 -6.80005,-2.299951 -6.80005,-5.69995 0,-3.600001 2.80009,-4.600001 6.60009,-5.5 2.60001,-0.600001 3.39991,-0.900147 3.39991,-1.900147 0,-1 -0.9,-1.599853 -2.5,-1.599853 -2.2,0 -4.09993,0.799951 -5.79993,2.199951 l -2.5,-3 c 2.1,-1.700001 4.99995,-2.800049 8.19995,-2.800049 z" /><path
           inkscape:connector-curvature="0"
           id="path500"
           style="fill:#ffffff;fill-opacity:1;fill-rule:evenodd;stroke:none"
           d="m 561.76934,108.80008 h 3.70007 c 1.6,0 2.8999,-1.30015 2.8999,-2.90015 V 76.800079 c 0,-1.599998 -1.2999,-2.900146 -2.8999,-2.900146 h -7.30005 l 2.19995,6.200195 c 0.2,0.700001 -0.0999,1.399952 -0.79992,1.699951 -0.1,0 -0.20005,0.09985 -0.30005,0.09985 -0.1,0 -0.30003,0 -0.40003,0 -0.4,-0.1 -0.7999,-0.399805 -0.8999,-0.799805 l -0.5,-1.300049 v 5.300049 c 0,0.8 -0.60002,1.599951 -1.40002,1.699951 h -0.1 c -0.1,0 -0.10007,0 -0.20007,0 -0.1,0 -0.1,0 -0.19995,0 h -0.1 -0.1001 -0.1 c -0.2,-0.1 -0.39998,-0.200048 -0.59998,-0.300048 v 0.300048 c 0,0.4 -0.2,0.799855 -0.5,1.099854 l -0.1,0.100098 c -0.1,0.1 -0.20005,0.199951 -0.30005,0.199951 v 2.100097 c 0,0.4 -0.29995,0.699952 -0.69995,0.699952 h -3.09998 c -0.5,0 -0.9001,0.6 -0.6001,1 l 6.30005,12.899903 c 1,2.3 3.39998,3.90015 6.09998,3.90015 z m -2.09998,-11.600098 c 0.8,0 1.5,0.700001 1.5,1.5 0,0.799999 -0.7,1.499998 -1.5,1.499998 -0.8,0 -1.5,-0.699999 -1.5,-1.499998 0,-0.799999 0.6,-1.5 1.5,-1.5 z" /><path
           inkscape:connector-curvature="0"
           id="path504"
           style="fill:#ffffff;fill-opacity:1;fill-rule:evenodd;stroke:none"
           d="m 554.66925,106.30008 c 0.2,1.3 -0.79995,2.5 -2.19995,2.5 h -6.6001 c -2.8,0 -5.3,-1.6001 -6.5,-4.1001 l -5.8999,-11.999998 c -0.2,-0.5 0.1,-1.099854 0.69995,-1.099854 h 2.59998 c 0.5,0 0.80007,-0.500147 0.70007,-0.900146 l -0.70007,-2.5 c 0,0 -3e-5,-0.09985 0.1,-0.09985 1.9,0 3.5,-1.6 3.5,-3.5 v -0.300049 c 0,-1.899999 -1.6,-3.5 -3.5,-3.5 h -1.3999 c -0.1,0 -0.20005,0 -0.30005,0 -0.2,0 -0.49997,-0.100147 -0.59997,-0.400146 -0.9,-3.200005 1.49992,-6.299809 4.79992,-6.299809 h 7.40003 v 8.199951 c 0,0.700001 0.60005,1.300049 1.30005,1.300049 h 0.1 0.1 0.1 v 1.5 c 0,0.9 0.80007,1.699951 1.70007,1.699951 0.4,0 0.79998,-0.200146 1.09997,-0.400146 v 0.300049 c 0,0.7 0.4,1.299999 1,1.5 v 1.300048 h -2.40002 c -1.6,0 -2.60002,1.700098 -1.90002,3.100098 l 6.20007,12.899902 c 0.3,0.2 0.49997,0.50005 0.59997,0.80005 z M 543.8692,97.199982 c 0.8,0 1.5,0.7 1.5,1.5 0,0.799999 -0.7,1.499998 -1.5,1.499998 -0.8,0 -1.5,-0.699999 -1.5,-1.499998 0,-0.8 0.7,-1.5 1.5,-1.5 z" /></g></g></g></svg>
