<?xml version="1.0" encoding="UTF-8" standalone="no"?>
<!-- Created with Inkscape (http://www.inkscape.org/) -->

<svg
   xmlns:dc="http://purl.org/dc/elements/1.1/"
   xmlns:cc="http://creativecommons.org/ns#"
   xmlns:rdf="http://www.w3.org/1999/02/22-rdf-syntax-ns#"
   xmlns:svg="http://www.w3.org/2000/svg"
   xmlns="http://www.w3.org/2000/svg"
   xmlns:sodipodi="http://sodipodi.sourceforge.net/DTD/sodipodi-0.dtd"
   xmlns:inkscape="http://www.inkscape.org/namespaces/inkscape"
   version="1.1"
   id="svg2"
   xml:space="preserve"
   width="600"
   height="100"
   viewBox="0 0 599.99998 100"
   sodipodi:docname="globaleaks-logo-color.svg"
   inkscape:version="0.92.4 (5da689c313, 2019-01-14)"
   inkscape:export-filename="/home/evilaliv3/Development/GlobaLeaks/assets/globaleaks-logo-color.png"
   inkscape:export-xdpi="96"
   inkscape:export-ydpi="96"><metadata
     id="metadata8"><rdf:RDF><cc:Work
         rdf:about=""><dc:format>image/svg+xml</dc:format><dc:type
           rdf:resource="http://purl.org/dc/dcmitype/StillImage" /><dc:title></dc:title></cc:Work></rdf:RDF></metadata><defs
     id="defs6"><clipPath
       clipPathUnits="userSpaceOnUse"
       id="clipPath18"><path
         d="M 0,0 H 842 V 595 H 0 Z"
         id="path16"
         inkscape:connector-curvature="0" /></clipPath><mask
       maskUnits="userSpaceOnUse"
       x="0"
       y="0"
       width="1"
       height="1"
       id="mask20"><g
         id="g28"><g
           clip-path="url(#clipPath18)"
           id="g26"><g
             transform="rotate(90,297.49999,297.50001)"
             id="g24"><path
               d="M 0,595 H 595 V -247 H 0 Z"
               style="fill:#000000;fill-opacity:1;fill-rule:nonzero;stroke:none"
               id="path22"
               inkscape:connector-curvature="0" /></g></g></g></mask><clipPath
       clipPathUnits="userSpaceOnUse"
       id="clipPath36"><path
         d="M 0,0 H 842 V 595 H 0 Z"
         id="path34"
         inkscape:connector-curvature="0" /></clipPath><clipPath
       clipPathUnits="userSpaceOnUse"
       id="clipPath40"><path
         d="M 0,0 H 842 V 595 H 0 Z"
         id="path38"
         inkscape:connector-curvature="0" /></clipPath><clipPath
       clipPathUnits="userSpaceOnUse"
       id="clipPath44"><path
         d="M 0,0 H 842 V 595 H 0 Z"
         id="path42"
         inkscape:connector-curvature="0" /></clipPath><clipPath
       clipPathUnits="userSpaceOnUse"
       id="clipPath48"><path
         d="M 0,0 H 842 V 595 H 0 Z"
         id="path46"
         inkscape:connector-curvature="0" /></clipPath><clipPath
       clipPathUnits="userSpaceOnUse"
       id="clipPath52"><path
         d="M 0,0 H 842 V 595 H 0 Z"
         id="path50"
         inkscape:connector-curvature="0" /></clipPath><clipPath
       clipPathUnits="userSpaceOnUse"
       id="clipPath56"><path
         d="M 0,0 H 842 V 595 H 0 Z"
         id="path54"
         inkscape:connector-curvature="0" /></clipPath></defs><sodipodi:namedview
     pagecolor="#ffffff"
     bordercolor="#666666"
     borderopacity="1"
     objecttolerance="10"
     gridtolerance="10"
     guidetolerance="10"
     inkscape:pageopacity="0"
     inkscape:pageshadow="2"
     inkscape:window-width="636"
     inkscape:window-height="1040"
     id="namedview4"
     showgrid="false"
     inkscape:zoom="0.297479"
     inkscape:cx="103.05656"
     inkscape:cy="415.02887"
     inkscape:window-x="1280"
     inkscape:window-y="18"
     inkscape:window-maximized="0"
     inkscape:current-layer="g10"
     fit-margin-top="0"
     fit-margin-left="0"
     fit-margin-right="0"
     fit-margin-bottom="0" /><g
     id="g10"
     inkscape:groupmode="layer"
     inkscape:label="brand_guidelines"
     transform="matrix(1.3333333,0,0,-1.3333333,130,81.637807)"><g
       transform="matrix(2.1609088,0,0,2.1609088,-399.15392,-611.90342)"
       id="g2956"><g
         id="g84"
         transform="translate(188.00003,286.40015)"><path
           inkscape:connector-curvature="0"
           id="path82"
           style="fill:#184e83;fill-opacity:1;fill-rule:nonzero;stroke:none"
           d="m 7.599976,6.000061 h 3.300048 V 4.100037 c -0.8,-0.5 -1.700098,-0.799988 -2.600097,-0.799988 -2.4,0 -4.399903,2 -4.399903,4.5 0,2.399999 1.999903,4.5 4.399903,4.5 1.3,0 2.7,-0.599976 3.5,-1.599976 l 2.800049,2.5 c -1.600001,1.600001 -3.90005,2.599976 -6.300049,2.599976 C 3.799927,15.800049 0,12.200086 0,7.900085 0,3.600085 3.799927,6.1e-5 8.299927,6.1e-5 c 2.399999,0 4.700048,0.999975 6.300049,2.599976 v 6.400024 h -7 z" /></g><g
         id="g88"
         transform="translate(205.00003,286.50024)"><path
           inkscape:connector-curvature="0"
           id="path86"
           style="fill:#184e83;fill-opacity:1;fill-rule:nonzero;stroke:none"
           d="M 3.799927,3.400024 V 15.300049 H 0 V 0 h 11.199951 v 3.400024 z" /></g><g
         id="g92"
         transform="translate(217.60001,286.30005)"><path
           inkscape:connector-curvature="0"
           id="path90"
           style="fill:#184e83;fill-opacity:1;fill-rule:nonzero;stroke:none"
           d="m 8.199951,6.1e-5 c 4.5,0 8.200073,3.599963 8.200073,7.899963 0,4.300001 -3.800073,7.900025 -8.200073,7.900025 C 3.699951,15.800049 0,12.200025 0,7.900024 0,3.600024 3.799951,6.1e-5 8.199951,6.1e-5 Z m 0,3.399963 c -2.3,0 -4.299927,2 -4.299927,4.5 0,2.4 1.999927,4.5 4.299927,4.5 2.3,0 4.300049,-2 4.300049,-4.5 0.1,-2.399999 -1.900049,-4.5 -4.300049,-4.5 z" /></g><g
         id="g96"
         transform="translate(236.40005,286.50024)"><path
           inkscape:connector-curvature="0"
           id="path94"
           style="fill:#184e83;fill-opacity:1;fill-rule:nonzero;stroke:none"
           d="M 0,0 H 8.299927 C 11.299927,0 13.5,1.700037 13.5,4.100037 13.5,5.800036 12.499951,7.2 10.699951,8 c 1.3,0.7 2.099976,1.900024 2.099976,3.400024 0,2.2 -1.999927,3.900025 -4.799927,3.900025 H 0 Z m 3.799927,9.300049 v 2.799988 h 3.300049 c 1,0 1.799926,-0.600025 1.799926,-1.400025 0,-0.8 -0.799926,-1.399963 -1.799926,-1.399963 z m 0,-6 v 3.099975 h 3.900024 c 1.100001,0 1.900025,-0.6 1.900025,-1.5 0,-0.899999 -0.800024,-1.5 -1.900025,-1.5 H 3.799927 Z" /></g><g
         id="g100"
         transform="translate(250.69998,286.50024)"><path
           inkscape:connector-curvature="0"
           id="path98"
           style="fill:#184e83;fill-opacity:1;fill-rule:nonzero;stroke:none"
           d="M 12.200073,0 H 16.5 L 10.400024,15.300049 H 6.099976 L 0,0 h 4.300049 l 0.900024,2.200012 h 6.099976 z M 6.400024,5.200012 8.200073,9.900024 10,5.200012 Z" /></g><g
         id="g104"
         transform="translate(268.69998,286.50024)"><path
           inkscape:connector-curvature="0"
           id="path102"
           style="fill:#184e83;fill-opacity:1;fill-rule:nonzero;stroke:none"
           d="M 3.800049,3.400024 V 15.300049 H 0 V 0 h 11.200073 v 3.400024 z" /></g><g
         id="g108"
         transform="translate(281.90005,286.50024)"><path
           inkscape:connector-curvature="0"
           id="path106"
           style="fill:#184e83;fill-opacity:1;fill-rule:nonzero;stroke:none"
           d="m 12,11.900024 v 3.400025 H 0 V 0 H 12 V 3.400024 H 3.799927 v 2.700013 h 7.5 V 9.5 h -7.5 v 2.400024 z" /></g><g
         id="g112"
         transform="translate(294.90005,286.50024)"><path
           inkscape:connector-curvature="0"
           id="path110"
           style="fill:#184e83;fill-opacity:1;fill-rule:nonzero;stroke:none"
           d="M 12.199951,0 H 16.5 L 10.399902,15.300049 H 6.099976 L 0,0 h 4.299927 l 0.900024,2.200012 h 6.099976 z M 6.399902,5.200012 8.199951,9.900024 10,5.200012 Z" /></g><g
         id="g116"
         transform="translate(313.00003,286.50024)"><path
           inkscape:connector-curvature="0"
           id="path114"
           style="fill:#184e83;fill-opacity:1;fill-rule:nonzero;stroke:none"
           d="M 0,0 H 3.799927 V 4.200012 L 5.599976,6.100037 9.900024,0 H 14.5 L 8.199951,8.800049 14,15.300049 H 9.5 l -5.700073,-6.5 v 6.5 H 0 Z" /></g><g
         id="g120"
         transform="translate(327.69998,286.30005)"><path
           inkscape:connector-curvature="0"
           id="path118"
           style="fill:#184e83;fill-opacity:1;fill-rule:nonzero;stroke:none"
           d="m 7.099976,6.1e-5 c 3.8,0 6.100097,1.9 6.100097,5 0,2.9 -2.200098,3.899976 -5.600097,4.599976 -2.300001,0.5 -3,0.800012 -3,1.700012 0,0.8 0.700024,1.299988 1.900024,1.299988 1.4,0 3.000025,-0.599976 4.400024,-1.599976 l 1.900025,2.699951 c -1.600001,1.4 -3.600073,2.100037 -6.200073,2.100037 -3.5,0 -5.899903,-2.000025 -5.899903,-4.900025 0,-3.1 2.399951,-4.000012 5.699951,-4.700012 2.2,-0.5 2.900025,-0.699976 2.900025,-1.599975 0,-0.800001 -0.700073,-1.400025 -2.200073,-1.400025 -1.900001,0 -3.5,0.700025 -5,1.900025 L 0,2.500061 c 1.9,-1.6 4.299975,-2.5 7.099976,-2.5 z" /></g><g
         id="g124"
         transform="translate(160.02335,279.1001)"><path
           inkscape:connector-curvature="0"
           id="path122"
           style="fill:#184e83;fill-opacity:1;fill-rule:evenodd;stroke:none"
           d="m 10.976665,30.100098 h 3.199952 c 1.399999,0 2.5,-1.100001 2.5,-2.5 V 2.500122 c 0,-1.4 -1.100001,-2.5 -2.5,-2.5 H 7.876689 L 9.776592,5.30011 c 0.2,0.6 -0.099951,1.200001 -0.699951,1.5 -0.1,0 -0.200048,0.099975 -0.300049,0.099975 -0.1,0 -0.199902,0 -0.399902,0 -0.4,-0.1 -0.700049,-0.399951 -0.800049,-0.699951 L 7.176616,5.100098 v 4.5 c 0,0.7 -0.499951,1.299999 -1.199951,1.5 H 5.876689 c -0.099999,0 -0.100073,0 -0.200073,0 -0.1,0 -0.099951,0 -0.199951,0 H 5.376689 5.276592 5.176616 c -0.2,-0.100001 -0.3,-0.199988 -0.5,-0.299988 v 0.299988 c 0,0.399999 -0.200024,0.7 -0.400024,1 l -0.099976,0.100036 c -0.1,0.100001 -0.199927,0.09995 -0.299927,0.199951 v 1.800049 c 0,0.3 -0.300097,0.599976 -0.600097,0.599976 H 0.576641 c -0.5,0 -0.7,0.500025 -0.5,0.900024 L 5.476665,26.80011 c 1.1,1.899999 3.100001,3.199987 5.5,3.299988 z m -1.900024,-10 c 0.7,0 1.300049,0.599987 1.300049,1.299987 0,0.700001 -0.600049,1.300049 -1.300049,1.300049 -0.7,0 -1.300049,-0.600048 -1.300049,-1.300049 0,-0.7 0.600049,-1.299987 1.300049,-1.299987 z" /></g><g
         id="g128"
         transform="translate(146.53738,279.20019)"><path
           inkscape:connector-curvature="0"
           id="path126"
           style="fill:#3676bb;fill-opacity:1;fill-rule:evenodd;stroke:none"
           d="M 18.362698,27.799988 C 18.462698,28.899988 17.662674,30 16.462673,30 H 10.7626 c -2.4,0 -4.599975,-1.4 -5.599975,-3.5 L 0.062649,16.100037 c -0.2,-0.4 0.099976,-0.900025 0.599976,-0.900025 h 2.200073 c 0.4,0 0.699975,-0.399988 0.599975,-0.799988 L 2.862698,12.200012 c 0,0 -2.4e-5,-0.09997 0.099975,-0.09997 1.7,0 3.000001,-1.4 3.000001,-3 V 8.799993 c 0,-1.700001 -1.300001,-3 -3.000001,-3 H 1.7626 c -0.1,0 -0.199951,0 -0.199951,0 -0.2,0 -0.4,-0.099987 -0.5,-0.299988 C 0.262649,2.799999 2.362625,0 5.162625,0 h 6.400024 v 7.100037 c 0,0.6 0.499975,1.199951 1.099975,1.199951 h 0.09998 0.100098 v 1.300049 c 0,0.799999 0.699999,1.5 1.5,1.5 0.399999,0 0.699999,-0.100026 1,-0.400025 v 0.200012 c 0,0.600001 0.399902,1.099987 0.899902,1.299988 v 1.099976 h -2 c -1.4,0 -2.199976,1.400012 -1.599976,2.700012 l 5.400025,11.100037 c 0,0.2 0.200048,0.49995 0.300049,0.699951 z M 8.962673,20 c 0.7,0 1.299927,0.599987 1.299927,1.299988 0,0.700001 -0.599927,1.300049 -1.299927,1.300049 -0.7,0 -1.300048,-0.600048 -1.300048,-1.300049 C 7.762625,20.499989 8.362673,20 8.962673,20 Z" /></g></g></g></svg>