<?xml version="1.0" encoding="UTF-8" standalone="no"?>
<!-- Created with Inkscape (http://www.inkscape.org/) -->

<svg
   xmlns:dc="http://purl.org/dc/elements/1.1/"
   xmlns:cc="http://creativecommons.org/ns#"
   xmlns:rdf="http://www.w3.org/1999/02/22-rdf-syntax-ns#"
   xmlns:svg="http://www.w3.org/2000/svg"
   xmlns="http://www.w3.org/2000/svg"
   xmlns:sodipodi="http://sodipodi.sourceforge.net/DTD/sodipodi-0.dtd"
   xmlns:inkscape="http://www.inkscape.org/namespaces/inkscape"
   version="1.1"
   id="svg2"
   xml:space="preserve"
   width="300"
   height="300"
   viewBox="0 0 299.99999 300"
   sodipodi:docname="icon-white.svg"
   inkscape:version="0.92.4 (5da689c313, 2019-01-14)"><metadata
     id="metadata8"><rdf:RDF><cc:Work
         rdf:about=""><dc:format>image/svg+xml</dc:format><dc:type
           rdf:resource="http://purl.org/dc/dcmitype/StillImage" /><dc:title></dc:title></cc:Work></rdf:RDF></metadata><defs
     id="defs6"><clipPath
       clipPathUnits="userSpaceOnUse"
       id="clipPath18"><path
         d="M 0,0 H 842 V 595.00006 H 0 Z"
         id="path16"
         inkscape:connector-curvature="0" /></clipPath><mask
       maskUnits="userSpaceOnUse"
       x="0"
       y="0"
       width="1"
       height="1"
       id="mask20"><g
         id="g28"><g
           clip-path="url(#clipPath18)"
           id="g26"><g
             transform="rotate(90,297.50005,297.50007)"
             id="g24"><path
               d="m 0,595.00006 h 595 v -842 H 0 Z"
               style="fill:#000000;fill-opacity:1;fill-rule:nonzero;stroke:none"
               id="path22"
               inkscape:connector-curvature="0" /></g></g></g></mask><clipPath
       clipPathUnits="userSpaceOnUse"
       id="clipPath36"><path
         d="M 0,0 H 842 V 595.00006 H 0 Z"
         id="path34"
         inkscape:connector-curvature="0" /></clipPath><clipPath
       clipPathUnits="userSpaceOnUse"
       id="clipPath40"><path
         d="M 0,0 H 842 V 595.00006 H 0 Z"
         id="path38"
         inkscape:connector-curvature="0" /></clipPath></defs><sodipodi:namedview
     pagecolor="#ffffff"
     bordercolor="#666666"
     borderopacity="1"
     objecttolerance="10"
     gridtolerance="10"
     guidetolerance="10"
     inkscape:pageopacity="0"
     inkscape:pageshadow="2"
     inkscape:window-width="1920"
     inkscape:window-height="1080"
     id="namedview4"
     showgrid="false"
     inkscape:zoom="0.29747895"
     inkscape:cx="-26.943538"
     inkscape:cy="396.66672"
     inkscape:window-x="0"
     inkscape:window-y="0"
     inkscape:window-maximized="0"
     inkscape:current-layer="g10" /><g
     id="g10"
     inkscape:groupmode="layer"
     inkscape:label="brand_guidelines"
     transform="matrix(1.3333333,0,0,-1.3333333,0,299.99997)"><g
       id="g2857"
       transform="translate(-185.00005,-11.038153)"><g
         id="g2272"
         transform="matrix(6.0065691,0,0,6.0065691,-3011.4495,-425.16199)"><g
           transform="translate(549.26599,73.899933)"
           id="g502"><path
             d="m 12.503347,34.900146 h 3.700074 c 1.6,0 2.899902,-1.300148 2.899902,-2.900146 V 2.900146 C 19.103323,1.300148 17.803421,0 16.203421,0 H 8.903372 l 2.199951,6.200195 c 0.2,0.700001 -0.09993,1.399952 -0.799927,1.699951 -0.1,0 -0.200048,0.099854 -0.300049,0.099854 -0.1,0 -0.300024,0 -0.400024,0 -0.4,-0.1 -0.799902,-0.399805 -0.899902,-0.799805 l -0.5,-1.300049 v 5.300049 c 0,0.8 -0.600025,1.599951 -1.400025,1.699951 H 6.703421 c -0.1,0 -0.100074,0 -0.200074,0 -0.1,0 -0.099951,0 -0.199951,0 H 6.203421 6.103323 6.003347 c -0.199999,-0.1 -0.399975,-0.200048 -0.599975,-0.300048 v 0.300048 c 0,0.4 -0.2,0.799855 -0.5,1.099854 l -0.099976,0.100098 c -0.1,0.1 -0.200049,0.199951 -0.300049,0.199951 v 2.100097 c 0,0.4 -0.299951,0.699952 -0.699951,0.699952 H 0.703421 c -0.5,0 -0.900098,0.6 -0.600098,1 L 6.403372,31 c 1,2.299999 3.399976,3.900146 6.099975,3.900146 z M 10.403372,23.300049 c 0.8,0 1.5,0.700001 1.5,1.5 0,0.799999 -0.7,1.5 -1.5,1.5 -0.8,0 -1.5,-0.700001 -1.5,-1.5 0,-0.799999 0.6,-1.5 1.5,-1.5 z"
             style="fill:#ffffff;fill-opacity:1;fill-rule:evenodd;stroke:none"
             id="path500"
             inkscape:connector-curvature="0" /></g><g
           transform="translate(533.40759,74.100128)"
           id="g506"><path
             d="m 21.261662,32.199951 c 0.2,1.299999 -0.799952,2.5 -2.199952,2.5 h -6.600097 c -2.8,0 -5.3,-1.600097 -6.500001,-4.100097 l -5.899902,-12 C -0.13829,18.099854 0.161661,17.5 0.761661,17.5 h 2.599976 c 0.5,0 0.800073,-0.500147 0.700073,-0.900146 l -0.700073,-2.5 c 0,0 -2.5e-5,-0.09985 0.099975,-0.09985 1.9,0 3.5,-1.6 3.5,-3.5 v -0.300049 c 0,-1.899999 -1.6,-3.5 -3.5,-3.5 H 2.06171 c -0.1,0 -0.200049,0 -0.300049,0 -0.2,0 -0.499975,-0.100147 -0.599975,-0.400146 C 0.261686,3.099804 2.661612,0 5.961612,0 h 7.400025 v 8.199951 c 0,0.700001 0.600049,1.300049 1.300049,1.300049 h 0.09998 0.09998 0.09998 V 11 c 0,0.9 0.800073,1.699951 1.700073,1.699951 0.4,0 0.799976,-0.200146 1.099976,-0.400146 v 0.300049 c 0,0.7 0.399999,1.299999 1,1.5 v 1.300048 H 16.36165 c -1.6,0 -2.600024,1.700098 -1.900024,3.100098 l 6.200073,12.899902 c 0.299999,0.200001 0.499975,0.50005 0.599976,0.800049 z M 10.461613,23.099854 c 0.8,0 1.5,0.7 1.5,1.5 0,0.799999 -0.7,1.5 -1.5,1.5 -0.8,0 -1.5,-0.700001 -1.5,-1.5 0,-0.8 0.7,-1.5 1.5,-1.5 z"
             style="fill:#ffffff;fill-opacity:1;fill-rule:evenodd;stroke:none"
             id="path504"
             inkscape:connector-curvature="0" /></g></g></g></g></svg>