<?xml version="1.0" encoding="UTF-8" standalone="no"?>
<!-- Created with Inkscape (http://www.inkscape.org/) -->

<svg
   xmlns:dc="http://purl.org/dc/elements/1.1/"
   xmlns:cc="http://creativecommons.org/ns#"
   xmlns:rdf="http://www.w3.org/1999/02/22-rdf-syntax-ns#"
   xmlns:svg="http://www.w3.org/2000/svg"
   xmlns="http://www.w3.org/2000/svg"
   xmlns:sodipodi="http://sodipodi.sourceforge.net/DTD/sodipodi-0.dtd"
   xmlns:inkscape="http://www.inkscape.org/namespaces/inkscape"
   version="1.1"
   id="svg2"
   xml:space="preserve"
   width="300"
   height="300"
   viewBox="0 0 299.99999 300"
   sodipodi:docname="icon-color.svg"
   inkscape:version="0.92.4 (5da689c313, 2019-01-14)"><metadata
     id="metadata8"><rdf:RDF><cc:Work
         rdf:about=""><dc:format>image/svg+xml</dc:format><dc:type
           rdf:resource="http://purl.org/dc/dcmitype/StillImage" /><dc:title></dc:title></cc:Work></rdf:RDF></metadata><defs
     id="defs6"><clipPath
       clipPathUnits="userSpaceOnUse"
       id="clipPath18"><path
         d="M 0,0 H 842 V 595.00006 H 0 Z"
         id="path16"
         inkscape:connector-curvature="0" /></clipPath><mask
       maskUnits="userSpaceOnUse"
       x="0"
       y="0"
       width="1"
       height="1"
       id="mask20"><g
         id="g28"><g
           clip-path="url(#clipPath18)"
           id="g26"><g
             transform="rotate(90,297.50002,297.50004)"
             id="g24"><path
               d="m 0,595.00006 h 595 v -842 H 0 Z"
               style="fill:#000000;fill-opacity:1;fill-rule:nonzero;stroke:none"
               id="path22"
               inkscape:connector-curvature="0" /></g></g></g></mask><clipPath
       clipPathUnits="userSpaceOnUse"
       id="clipPath36"><path
         d="M 0,0 H 842 V 595.00006 H 0 Z"
         id="path34"
         inkscape:connector-curvature="0" /></clipPath></defs><sodipodi:namedview
     pagecolor="#ffffff"
     bordercolor="#666666"
     borderopacity="1"
     objecttolerance="10"
     gridtolerance="10"
     guidetolerance="10"
     inkscape:pageopacity="1"
     inkscape:pageshadow="2"
     inkscape:window-width="1920"
     inkscape:window-height="1080"
     id="namedview4"
     showgrid="false"
     inkscape:zoom="0.42069877"
     inkscape:cx="189.20014"
     inkscape:cy="429.15801"
     inkscape:window-x="0"
     inkscape:window-y="0"
     inkscape:window-maximized="0"
     inkscape:current-layer="g10" /><g
     id="g10"
     inkscape:groupmode="layer"
     inkscape:label="brand_guidelines"
     transform="matrix(1.3333333,0,0,-1.3333333,0,299.99997)"><g
       id="g1086"
       transform="matrix(2.1750715,0,0,2.1750715,-132.19555,-132.19553)"><g
         id="g1052"
         transform="translate(-4.4360158,-330.31158)"><g
           transform="translate(68.661743,392.61224)"
           id="g82"><path
             d="m 58.774815,93.241539 c 0.49702,3.677971 -2.286301,7.157081 -6.262486,7.157081 H 36.11058 c -8.051771,0 -15.407707,-4.572509 -18.886867,-11.82904 L 0.225537,53.877243 c -0.695832,-1.391663 0.298207,-3.081394 1.88868,-3.081394 h 7.455342 c 1.391664,0 2.385709,-1.292214 1.988091,-2.683876 L 9.569559,40.75589 c 0,-0.0994 0.099409,-0.29826 0.198814,-0.29826 5.566655,0 10.13926,-4.572559 10.13926,-10.139217 v -0.894547 c 0,-5.56665 -4.572605,-10.139213 -10.13926,-10.139213 H 5.79219 c -0.298213,0 -0.59643,0 -0.795239,0 -0.695832,0.0994 -1.391662,-0.29821 -1.590472,-0.994042 C 0.821961,9.145393 7.780281,2.3e-5 17.223713,2.3e-5 H 36.20998 v 23.757835 c 0,2.087494 1.689884,3.876679 3.777378,3.876679 h 0.198807 0.198807 c 0.0994,0 0.298214,-9.2e-5 0.397617,-0.0995 v 4.274445 c 0,2.683922 2.186901,4.97023 4.870827,4.97023 1.292259,0 2.385711,-0.49707 3.280353,-1.292305 v 0.79528 c 0,1.988095 1.192848,3.678116 2.882725,4.373947 v 3.677922 h -6.85891 c -4.572609,0 -7.554752,4.771415 -5.566658,8.946407 l 18.091633,37.177208 c 0.298214,1.093445 0.695828,1.988136 1.292256,2.783371 z M 29.848089,66.99884 c 2.286303,0 4.174998,1.888489 4.174998,4.274201 0,2.2863 -1.888695,4.274444 -4.174998,4.274444 -2.286304,0 -4.174989,-1.888733 -4.174989,-4.274444 0,-2.385712 1.888685,-4.274201 4.174989,-4.274201 z"
             style="fill:#3676bb;fill-opacity:1;fill-rule:evenodd;stroke:none"
             id="path80"
             inkscape:connector-curvature="0" /></g><g
           transform="translate(111.35608,392.61224)"
           id="g86"><path
             d="m 36.35902,100.39862 h 9.145218 c 4.572609,0 8.349976,-3.677871 8.349976,-8.349883 V 8.350151 C 53.854214,3.777542 50.17625,2.3e-5 45.504238,2.3e-5 H 25.822134 l 6.361883,17.793564 c 0.695831,1.98809 -0.298199,4.174896 -2.286289,4.870727 -0.298214,0.0994 -0.596428,0.198761 -0.994045,0.198761 -0.39762,0 -0.79525,1.45e-4 -1.192868,-0.09927 -1.192853,-0.29821 -2.286302,-1.192848 -2.683919,-2.485107 l -1.391659,-3.678162 v 15.208939 c 0,2.485115 -1.789288,4.47335 -4.075592,4.870971 h -0.198807 c -0.198809,0 -0.397615,0 -0.596424,0 -0.198811,0 -0.397619,0 -0.497025,0 -0.0994,0 -0.19881,0 -0.298216,0 -0.09941,0 -0.198804,-9.9e-5 -0.298208,-0.0995 -0.0994,0 -0.298216,-0.0995 -0.397621,-0.0995 h -0.0994 C 16.577515,36.282639 15.98108,35.885017 15.583462,35.487404 v 0.894783 c 0,1.192856 -0.497018,2.385662 -1.292255,3.180897 -0.09941,0.09941 -0.198812,0.19886 -0.298217,0.298263 -0.298213,0.198811 -0.596428,0.496876 -0.894642,0.596283 v 5.964272 c 0,1.093448 -0.894639,2.087593 -2.087494,2.087593 h -8.94641 c -1.491068,0 -2.485116,1.590473 -1.888688,2.982136 l 18.191037,37.177208 c 3.280351,7.157127 10.238674,11.630381 17.992227,11.729781 z M 30.29534,66.99884 c 2.385709,0 4.274396,1.888489 4.274396,4.274201 0,2.2863 -1.888687,4.274444 -4.274396,4.274444 -2.38571,0 -4.274399,-1.888733 -4.274399,-4.274444 0,-2.385712 1.888689,-4.274201 4.274399,-4.274201 z"
             style="fill:#184e83;fill-opacity:1;fill-rule:evenodd;stroke:none"
             id="path84"
             inkscape:connector-curvature="0" /></g></g></g></g></svg>