<?xml version="1.0" encoding="UTF-8" standalone="no"?>
<!-- Created with Inkscape (http://www.inkscape.org/) -->

<svg
   xmlns:dc="http://purl.org/dc/elements/1.1/"
   xmlns:cc="http://creativecommons.org/ns#"
   xmlns:rdf="http://www.w3.org/1999/02/22-rdf-syntax-ns#"
   xmlns:svg="http://www.w3.org/2000/svg"
   xmlns="http://www.w3.org/2000/svg"
   xmlns:sodipodi="http://sodipodi.sourceforge.net/DTD/sodipodi-0.dtd"
   xmlns:inkscape="http://www.inkscape.org/namespaces/inkscape"
   version="1.1"
   id="svg2"
   xml:space="preserve"
   width="300"
   height="170"
   viewBox="0 0 299.99999 170"
   sodipodi:docname="logo-vertical-color.svg"
   inkscape:version="0.92.4 (5da689c313, 2019-01-14)"><metadata
     id="metadata8"><rdf:RDF><cc:Work
         rdf:about=""><dc:format>image/svg+xml</dc:format><dc:type
           rdf:resource="http://purl.org/dc/dcmitype/StillImage" /><dc:title></dc:title></cc:Work></rdf:RDF></metadata><defs
     id="defs6"><clipPath
       clipPathUnits="userSpaceOnUse"
       id="clipPath18"><path
         d="M 0,0 H 842 V 595 H 0 Z"
         id="path16"
         inkscape:connector-curvature="0" /></clipPath><mask
       maskUnits="userSpaceOnUse"
       x="0"
       y="0"
       width="1"
       height="1"
       id="mask20"><g
         id="g28"><g
           clip-path="url(#clipPath18)"
           id="g26"><g
             transform="rotate(90,297.49999,297.50001)"
             id="g24"><path
               d="M 0,595 H 595 V -247 H 0 Z"
               style="fill:#000000;fill-opacity:1;fill-rule:nonzero;stroke:none"
               id="path22"
               inkscape:connector-curvature="0" /></g></g></g></mask><clipPath
       clipPathUnits="userSpaceOnUse"
       id="clipPath36"><path
         d="M 0,0 H 842 V 595 H 0 Z"
         id="path34"
         inkscape:connector-curvature="0" /></clipPath></defs><sodipodi:namedview
     pagecolor="#ffffff"
     bordercolor="#666666"
     borderopacity="1"
     objecttolerance="10"
     gridtolerance="10"
     guidetolerance="10"
     inkscape:pageopacity="1"
     inkscape:pageshadow="2"
     inkscape:window-width="1920"
     inkscape:window-height="1080"
     id="namedview4"
     showgrid="false"
     inkscape:zoom="0.297479"
     inkscape:cx="-615.22027"
     inkscape:cy="396.66666"
     inkscape:window-x="0"
     inkscape:window-y="0"
     inkscape:window-maximized="0"
     inkscape:current-layer="g10" /><g
     id="g10"
     inkscape:groupmode="layer"
     inkscape:label="brand_guidelines"
     transform="matrix(1.3333333,0,0,-1.3333333,0,170.00001)"><g
       transform="matrix(0.95454562,0,0,0.95454562,-121.45909,-230.58417)"
       id="g1795"><g
         id="g78"
         transform="translate(197.81103,280.19995)"><path
           inkscape:connector-curvature="0"
           id="path76"
           style="fill:#3676bb;fill-opacity:1;fill-rule:evenodd;stroke:none"
           d="m 52.888924,83.500122 c 0.5,3.300003 -2.099991,6.5 -5.599991,6.5 H 32.48893 c -7.200001,0 -13.799999,-4.100098 -17,-10.600098 L 0.188927,48.200073 c -0.6,-1.299999 0.299997,-2.699951 1.699997,-2.699951 h 6.699997 c 1.3,0 2.200002,-1.200024 1.800003,-2.400024 L 8.588921,36.500122 c 0,-0.1 0.100011,-0.200073 0.200012,-0.200073 5,0 9.099991,-4.099976 9.099991,-9.099976 v -0.799988 c 0,-5 -4.099991,-9.100036 -9.099991,-9.100036 H 5.188927 c -0.3,0 -0.499997,0 -0.699997,0 -0.6,0.1 -1.3,-0.299965 -1.5,-0.899964 C 0.68893,8.100082 6.888924,6.1e-5 15.388924,6.1e-5 H 32.48893 v 21.400024 c 0,1.900002 1.499992,3.5 3.399994,3.5 h 0.199997 0.100006 c 0.1,0 0.200004,-3.8e-5 0.300003,-0.100036 v 3.900024 c 0,2.5 1.999992,4.400025 4.399994,4.400025 1.099998,0 2.200008,-0.400036 2.900009,-1.100037 v 0.700012 c 0,1.799999 1.099991,3.299999 2.599991,4 v 3.300049 h -6.199997 c -4.099999,0 -6.8,4.299999 -5,8 l 16.300003,33.5 c 0.5,0.5 0.899994,1.300003 1.399994,2 z m -26,-23.600098 c 2.1,0 3.800003,1.700051 3.800003,3.800049 0,2.099999 -1.700003,3.800049 -3.800003,3.800049 -2.100001,0 -3.800003,-1.70005 -3.800003,-3.800049 0,-2.099998 1.700002,-3.800049 3.800003,-3.800049 z" /></g><g
         id="g82"
         transform="translate(235.91101,279.8999)"><path
           inkscape:connector-curvature="0"
           id="path80"
           style="fill:#103253;fill-opacity:1;fill-rule:evenodd;stroke:none"
           d="m 33.088921,90.300171 h 8.299987 c 4.099999,0 7.5,-3.300003 7.5,-7.5 V 7.500122 c 0,-4.099998 -3.299999,-7.5 -7.5,-7.5 H 23.688927 l 5.699981,16 c 0.600001,1.800003 -0.299976,3.800026 -2.099975,4.400024 -0.299999,0.1 -0.600025,0.199952 -0.900025,0.199952 -0.399999,0 -0.699976,2.3e-5 -1.099975,-0.09998 -1.100001,-0.300003 -2.00001,-1.100014 -2.400009,-2.200012 L 21.588921,15.000118 V 28.70013 c 0,2.200001 -1.599997,3.999962 -3.699997,4.399964 h -0.199997 c -0.200001,0 -0.400006,0 -0.600006,0 -0.200001,0 -0.3,0 -0.5,0 -0.100001,0 -0.200003,0 -0.300003,0 -0.100001,0 -0.200003,2.3e-5 -0.300004,-0.09998 -0.1,0 -0.199987,-0.09998 -0.299987,-0.09998 h -0.100006 c -0.5,-0.2 -1,-0.500022 -1.5,-0.900024 v 0.799988 c 0,1.099998 -0.499998,2.099964 -1.199997,2.899963 -0.100001,0.1 -0.199997,0.200073 -0.199997,0.200073 -0.2,0.200001 -0.500003,0.399975 -0.800003,0.599976 v 5.300049 c 0,1 -0.800009,1.899902 -1.90001,1.899902 h -8.09999 c -1.4,0 -2.299997,1.400074 -1.699997,2.700073 l 16.299987,33.5 c 3.3,6.300004 9.600007,10.300026 16.600007,10.400025 z m -5.5,-30.100098 c 2.1,0 3.799987,1.700051 3.799987,3.800049 0,2.099999 -1.699987,3.800049 -3.799987,3.800049 -2.100001,0 -3.799988,-1.70005 -3.799988,-3.800049 0,-2.099998 1.699987,-3.800049 3.799988,-3.800049 z" /></g><g
         id="g86"
         transform="translate(135.09998,246.5)"><path
           inkscape:connector-curvature="0"
           id="path84"
           style="fill:#103253;fill-opacity:1;fill-rule:nonzero;stroke:none"
           d="M 11,13 H 21 V 3.800049 C 18.799999,1.400049 15.4,0 12,0 5.5,0 0,5.200024 0,11.400024 0,17.600025 5.4,22.800049 12,22.800049 15.4,22.800049 18.799999,21.4 21,19 l -4,-3.599976 c -1.2,1.5 -3.1,2.400025 -5,2.400025 -3.4,0 -6.300003,-2.900025 -6.300003,-6.400025 C 5.699997,7.900024 8.6,5 12,5 c 1.3,0 2.599997,0.400013 3.699997,1.200012 V 9 H 11 Z" /></g><g
         id="g90"
         transform="translate(159.69995,246.8999)"><path
           inkscape:connector-curvature="0"
           id="path88"
           style="fill:#103253;fill-opacity:1;fill-rule:nonzero;stroke:none"
           d="M 16.100006,4.900024 V 0 H 0 V 22 H 5.400009 V 4.900024 Z" /></g><g
         id="g94"
         transform="translate(177.79993,246.5)"><path
           inkscape:connector-curvature="0"
           id="path92"
           style="fill:#103253;fill-opacity:1;fill-rule:nonzero;stroke:none"
           d="m 0,11.400024 c 0,6.200001 5.400003,11.400025 11.800003,11.400025 6.4,0 11.899994,-5.200024 11.899994,-11.400025 C 23.699997,5.200024 18.300003,0 11.800003,0 5.500003,0 0,5.200024 0,11.400024 Z m 18.099991,0 c 0,3.5 -2.899997,6.400025 -6.199997,6.400025 -3.4,0 -6.199997,-2.900025 -6.199997,-6.400025 0,-3.5 2.899997,-6.400024 6.199997,-6.400024 3.3,0 6.199997,2.900024 6.199997,6.400024 z" /></g><g
         id="g98"
         transform="translate(204.79993,246.8999)"><path
           inkscape:connector-curvature="0"
           id="path96"
           style="fill:#103253;fill-opacity:1;fill-rule:nonzero;stroke:none"
           d="m 0,22 h 11.5 c 4.1,0 6.899994,-2.299999 6.899994,-5.5 0,-2.2 -1.1,-3.900024 -3,-4.900024 2.5,-1.100001 4,-3.199976 4,-5.599976 0,-3.5 -3.1,-6 -7.5,-6 H 0 Z m 10.199997,-8.700012 c 1.5,0 2.600006,0.900037 2.600006,2.100036 0,1.200001 -1.100006,2 -2.600006,2 H 5.5 V 13.299988 Z M 11,4.599976 c 1.6,0 2.800003,0.900013 2.800003,2.200012 C 13.800003,8.099988 12.6,9 11,9 H 5.5 V 4.599976 Z" /></g><g
         id="g102"
         transform="translate(225.5,246.8999)"><path
           inkscape:connector-curvature="0"
           id="path100"
           style="fill:#103253;fill-opacity:1;fill-rule:nonzero;stroke:none"
           d="M 16.199997,3.200012 H 7.5 L 6.199997,0 H 0 l 8.699997,22 h 6.199997 L 23.600006,0 H 17.399994 Z M 14.5,7.5 11.800003,14.299988 9.100006,7.5 Z" /></g><g
         id="g106"
         transform="translate(251.29993,246.8999)"><path
           inkscape:connector-curvature="0"
           id="path104"
           style="fill:#103253;fill-opacity:1;fill-rule:nonzero;stroke:none"
           d="M 16.099991,4.900024 V 0 H 0 V 22 H 5.399994 V 4.900024 Z" /></g><g
         id="g110"
         transform="translate(270.29993,246.8999)"><path
           inkscape:connector-curvature="0"
           id="path108"
           style="fill:#103253;fill-opacity:1;fill-rule:nonzero;stroke:none"
           d="M 5.400024,17.099976 V 13.700012 H 16.200012 V 8.799988 H 5.400024 V 4.900024 H 17.300018 V 0 H 0 v 22 h 17.300018 v -4.900024 z" /></g><g
         id="g114"
         transform="translate(289.09998,246.8999)"><path
           inkscape:connector-curvature="0"
           id="path112"
           style="fill:#103253;fill-opacity:1;fill-rule:nonzero;stroke:none"
           d="M 16.199982,3.200012 H 7.5 L 6.199982,0 H 0 l 8.699982,22 h 6.200012 L 23.600006,0 H 17.399994 Z M 14.5,7.5 11.799988,14.299988 9.100006,7.5 Z" /></g><g
         id="g118"
         transform="translate(315,246.7998)"><path
           inkscape:connector-curvature="0"
           id="path116"
           style="fill:#103253;fill-opacity:1;fill-rule:nonzero;stroke:none"
           d="m 0,22.100098 h 5.5 v -9.400025 l 8.200012,9.400025 h 6.5 l -8.400024,-9.400025 9,-12.699951 H 14.200012 L 8,8.700073 5.5,6.000122 v -6 H 0 Z" /></g><g
         id="g122"
         transform="translate(336.29993,246.5)"><path
           inkscape:connector-curvature="0"
           id="path120"
           style="fill:#103253;fill-opacity:1;fill-rule:nonzero;stroke:none"
           d="m 0,3.69989 3.100006,3.700012 c 2.1,-1.799999 4.600012,-2.799987 7.200012,-2.799987 2.100001,0 3.100006,0.799999 3.100006,2 0,1.3 -1.000012,1.599963 -4.200012,2.399963 -4.7,1.1 -8.200012,2.300049 -8.200012,6.800049 0,4.200001 3.400024,7.099975 8.400024,7.099975 3.7,0 6.599995,-1.1 8.899994,-3 L 15.5,15.999878 c -2,1.5 -4.199987,2.300049 -6.299988,2.300049 -1.8,0 -2.799988,-0.800024 -2.799988,-1.900025 0,-1.3 1.099988,-1.8 4.299988,-2.5 4.9,-1.1 8.100006,-2.499975 8.100006,-6.599975 C 18.800018,2.899927 15.4,0.099915 10,0.099915 6.2,-8.6e-5 2.6,1.299891 0,3.69989 Z" /></g></g></g></svg>