<?xml version="1.0" encoding="UTF-8" standalone="no"?>
<!-- Created with Inkscape (http://www.inkscape.org/) -->

<svg
   width="45.508335mm"
   height="45.508335mm"
   viewBox="0 0 45.508334 45.508334"
   version="1.1"
   id="svg1"
   inkscape:version="1.3.1 (9b9bdc1480, 2023-11-25, custom)"
   sodipodi:docname="favicon.svg"
   xmlns:inkscape="http://www.inkscape.org/namespaces/inkscape"
   xmlns:sodipodi="http://sodipodi.sourceforge.net/DTD/sodipodi-0.dtd"
   xmlns="http://www.w3.org/2000/svg"
   xmlns:svg="http://www.w3.org/2000/svg">
  <sodipodi:namedview
     id="namedview1"
     pagecolor="#ffffff"
     bordercolor="#000000"
     borderopacity="0.56078431"
     inkscape:showpageshadow="2"
     inkscape:pageopacity="0.0"
     inkscape:pagecheckerboard="0"
     inkscape:deskcolor="#d1d1d1"
     inkscape:document-units="mm"
     inkscape:zoom="1.4142136"
     inkscape:cx="335.16862"
     inkscape:cy="231.93102"
     inkscape:window-width="1920"
     inkscape:window-height="1131"
     inkscape:window-x="0"
     inkscape:window-y="0"
     inkscape:window-maximized="1"
     inkscape:current-layer="layer1" />
  <defs
     id="defs1">
    <linearGradient
       id="swatch2">
      <stop
         style="stop-color:#00e672;stop-opacity:0;"
         offset="0"
         id="stop2" />
    </linearGradient>
  </defs>
  <g
     inkscape:label="Layer 1"
     inkscape:groupmode="layer"
     id="layer1"
     transform="translate(-15.622676,-14.801661)">
    <circle
       style="fill:#ffffff;fill-opacity:0.98668736;stroke:none;stroke-width:0.153723;stroke-dasharray:none"
       id="path2"
       cx="52.013237"
       cy="13.335879"
       r="22.677305"
       transform="rotate(30)" />
    <g
       id="g4"
       transform="matrix(0.26982655,0,0,0.27010796,26.735177,25.914162)">
      <g
         id="g2">
        <path
           fill-rule="evenodd"
           clip-rule="evenodd"
           d="m 69.99,0 h 9.2 c 3.9,0 7.1,3.19998 7.1,7.09998 V 79.1 c 0,3.9 -3.2,7.1001 -7.1,7.1001 H 60.99 L 66.39,70.9 c 0.6,-1.7 -0.3,-3.5999 -2,-4.1999 -0.3,-0.1 -0.5,-0.2001 -0.8,-0.2001 -0.3,0 -0.7,0 -1,0.1 -1,0.2 -1.9,1.0001 -2.3,2.1001 L 59.09,71.9 v -13 c 0,-2.1 -1.5,-3.7999 -3.5,-4.1999 h -0.2 c -0.2,0 -0.4,0 -0.5,0 -0.2,0 -0.3,0 -0.5,0 -0.1,0 -0.2,0 -0.2,0 -0.1,0 -0.2,0 -0.3,0.0999 -0.1,0 -0.2,0.1 -0.3,0.1 -0.5,0.2 -1,0.5001 -1.4,0.8001 V 54.9 c 0,-1.1 -0.5,-1.9999 -1.1,-2.6999 -0.1,-0.1 -0.1,-0.1001 -0.2,-0.2001 -0.2,-0.2 -0.5,-0.4 -0.8,-0.5 v -5.1 c 0,-1 -0.8,-1.8 -1.8,-1.8 h -7.7 c -1.3,0 -2.2,-1.4 -1.6,-2.6 l 15.5,-32 c 2.8,-6 8.8,-9.9 15.5,-10 z m -5.2,28.8 c 2,0 3.6,-1.5999 3.6,-3.5999 0,-2 -1.6,-3.6001 -3.6,-3.6001 -2,0 -3.6,1.6001 -3.6,3.6001 -0.1,1.9 1.6,3.5999 3.6,3.5999 z"
           fill="#103253"
           id="path1" />
        <path
           fill-rule="evenodd"
           clip-rule="evenodd"
           d="m 52.5899,6.20007 c 0.4,-3.1 -2,-6.20007 -5.4,-6.20007 h -16.3 c -6.9,0 -13.1,3.89998 -16.2,10.1 L 0.189941,39.9 c -0.6,1.2 0.299991,2.6 1.599989,2.6 h 6.40001 c 1.2,0 2.09996,1.1 1.7,2.3 l -1.7,6.3 c 0,0.1 0.1,0.2 0.2,0.2 4.79996,0 8.59996,3.9 8.59996,8.7 v 0.8 c 0,4.8001 -3.9,8.7 -8.59996,8.7 H 4.98993 c -0.2,0 -0.5,0 -0.7,0 -0.6,-0.1 -1.19999,0.3 -1.39999,0.9 -2.200002,7.9 3.7,15.7 11.79996,15.7 h 18.4 V 65.7001 c 0,-1.8 1.5,-3.3001 3.3,-3.3001 h 0.2 0.1 c 0.1,0 0.2,0 0.3,0 v -3.6999 c 0,-2.3 1.9,-4.2001 4.2,-4.2001 1.1,0 2.1,0.4 2.8,1.1 v -0.7 c 0,-1.7 1,-3.2 2.5,-3.8 V 48 h -5.9 c -3.9,0 -6.4,-4.1 -4.7,-7.7 l 15.5,-31.99995 c 0.3,-0.6 0.7,-1.39998 1.2,-2.09998 z M 25.6899,28.8 c 2,0 3.6,-1.5999 3.6,-3.5999 0,-2 -1.6,-3.6001 -3.6,-3.6001 -2,0 -3.6,1.6001 -3.6,3.6001 0,1.9 1.6,3.5999 3.6,3.5999 z"
           fill="#3679bb"
           id="path2-2" />
      </g>
    </g>
  </g>
</svg>
