<?xml version="1.0" encoding="UTF-8" standalone="no"?>
<svg
   xmlns:dc="http://purl.org/dc/elements/1.1/"
   xmlns:cc="http://creativecommons.org/ns#"
   xmlns:rdf="http://www.w3.org/1999/02/22-rdf-syntax-ns#"
   xmlns:svg="http://www.w3.org/2000/svg"
   xmlns="http://www.w3.org/2000/svg"
   xmlns:sodipodi="http://sodipodi.sourceforge.net/DTD/sodipodi-0.dtd"
   xmlns:inkscape="http://www.inkscape.org/namespaces/inkscape"
   style="fill:none"
   id="svg26"
   version="1.1"
   viewBox="0 0 480 480"
   height="480"
   width="480"
   sodipodi:docname="globaleaks-icon-white.svg"
   inkscape:version="0.92.4 (5da689c313, 2019-01-14)">
  <sodipodi:namedview
     pagecolor="#ffffff"
     bordercolor="#666666"
     borderopacity="1"
     objecttolerance="10"
     gridtolerance="10"
     guidetolerance="10"
     inkscape:pageopacity="0"
     inkscape:pageshadow="2"
     inkscape:window-width="1920"
     inkscape:window-height="1080"
     id="namedview2959"
     showgrid="false"
     inkscape:zoom="0.58999707"
     inkscape:cx="-271.18878"
     inkscape:cy="200.00099"
     inkscape:window-x="0"
     inkscape:window-y="0"
     inkscape:window-maximized="0"
     inkscape:current-layer="svg26" />
  <metadata
     id="metadata32">
    <rdf:RDF>
      <cc:Work
         rdf:about="">
        <dc:format>image/svg+xml</dc:format>
        <dc:type
           rdf:resource="http://purl.org/dc/dcmitype/StillImage" />
        <dc:title></dc:title>
      </cc:Work>
    </rdf:RDF>
  </metadata>
  <defs
     id="defs30" />
  <g
     id="g3507"
     transform="matrix(0.80000001,0,0,0.79999601,80,80)">
    <g
       id="g1087"
       transform="scale(5.0000062)"
       style="fill:#ffffff">
      <path
         id="path22"
         d="m 65.6676,3.05176e-4 h 7.529 c 3.7191,0 6.8033,2.923584824 6.8033,6.644514824 V 73.3558 c 0,3.6323 -2.9934,6.6445 -6.8033,6.6445 H 57.1408 l 5.1705,-14.175 C 62.8556,64.2306 62.0392,62.4588 60.4064,61.9272 60.1343,61.8386 59.8621,61.75 59.59,61.75 c -0.3628,0 -0.635,0 -0.9978,0.0886 -0.9978,0.2658 -1.8142,0.9745 -2.1771,1.9491 l -1.1792,2.9235 V 54.5739 c 0,-1.949 -1.4514,-3.5437 -3.3563,-3.8981 h -0.1814 c -0.1815,0 -0.3629,0 -0.5443,0 -0.1814,0 -0.2721,0 -0.4536,0 -0.0907,0 -0.1814,0 -0.2721,0 -0.0907,0 -0.1814,0 -0.2721,0.0886 -0.0907,0 -0.1814,0.0886 -0.2722,0.0886 h -0.0907 c -0.4535,0.1772 -0.9071,0.443 -1.3606,0.7974 v -0.7088 c 0,-0.9745 -0.4536,-1.8605 -1.0886,-2.5692 -0.0907,-0.0886 -0.1814,-0.1772 -0.1814,-0.1772 -0.1814,-0.1772 -0.4535,-0.3544 -0.7257,-0.5316 v -4.6954 c 0,-0.8859 -0.7256,-1.6833 -1.7235,-1.6833 h -7.3475 c -1.27,0 -2.0864,-1.2403 -1.5421,-2.392 L 50.6096,9.21407 C 53.6031,3.72126 59.4086,0.0888987 65.6676,3.05176e-4 Z M 60.6785,26.667 c 1.9049,0 3.447,-1.5061 3.447,-3.3666 0,-1.8604 -1.5421,-3.3665 -3.447,-3.3665 -1.9049,0 -3.447,1.5061 -3.447,3.3665 0,1.8605 1.5421,3.3666 3.447,3.3666 z"
         style="clip-rule:evenodd;fill:#ffffff;fill-rule:evenodd"
         inkscape:connector-curvature="0" />
      <path
         id="path24"
         d="M 47.8289,8.39103 C 48.668,5.03462 46.1507,0 41.9551,0 H 28.7105 C 22.2974,0 16.5348,3.62367 13.6535,9.38442 L 0.17654,37.0732 c -0.557668,1.115 0.278826,2.4158 1.48711,2.4158 h 5.94846 c 1.11534,0 1.95184,1.0221 1.58006,2.1371 l -1.58006,5.8536 c 0,0.0929 0.09294,0.1859 0.18589,0.1859 4.4613,0 7.9932,3.6236 7.9932,8.0836 v 0.7433 c 0,4.4599 -3.6248,8.0836 -7.9932,8.0836 H 4.63787 c -0.18589,0 -0.46472,0 -0.65061,0 C 3.42959,64.4832 2.87193,64.8549 2.68604,65.4124 0.641261,72.7527 6.125,80 13.6535,80 H 30.7553 V 61.0454 c 0,-1.6725 1.3942,-3.0663 3.0672,-3.0663 h 0.1859 0.0929 c 0.093,0 0.1859,0 0.2789,0 v -3.4378 c 0,-2.137 1.7659,-3.9025 3.9036,-3.9025 1.0224,0 1.9519,0.3716 2.6025,1.0221 v -0.6504 c 0,-1.5796 0.9294,-2.9733 2.3236,-3.5308 v -2.8804 h -5.4837 c -3.6249,0 -5.9485,-3.8095 -4.3684,-7.1544 z M 23.8774,26.7596 c 1.8589,0 3.346,-1.4866 3.346,-3.3449 0,-1.8583 -1.4871,-3.345 -3.346,-3.345 -1.8589,0 -3.346,1.4867 -3.346,3.345 0,1.7654 1.4871,3.3449 3.346,3.3449 z"
         style="clip-rule:evenodd;fill:#ffffff;fill-rule:evenodd"
         inkscape:connector-curvature="0" />
    </g>
  </g>
</svg>
