<?xml version="1.0" encoding="UTF-8" standalone="no"?>
<svg
   xmlns:dc="http://purl.org/dc/elements/1.1/"
   xmlns:cc="http://creativecommons.org/ns#"
   xmlns:rdf="http://www.w3.org/1999/02/22-rdf-syntax-ns#"
   xmlns:svg="http://www.w3.org/2000/svg"
   xmlns="http://www.w3.org/2000/svg"
   xmlns:sodipodi="http://sodipodi.sourceforge.net/DTD/sodipodi-0.dtd"
   xmlns:inkscape="http://www.inkscape.org/namespaces/inkscape"
   width="500"
   height="120"
   viewBox="0 0 500 120"
   version="1.1"
   id="svg26"
   sodipodi:docname="globaleaks-logo-white.svg"
   style="fill:none"
   inkscape:version="0.92.4 (5da689c313, 2019-01-14)"
   inkscape:export-filename="/home/evilaliv3/Development/GlobaLeaks/brand/assets/globaleaks-logo-white.png"
   inkscape:export-xdpi="96"
   inkscape:export-ydpi="96">
  <sodipodi:namedview
     pagecolor="#ffffff"
     bordercolor="#666666"
     borderopacity="1"
     objecttolerance="10"
     gridtolerance="10"
     guidetolerance="10"
     inkscape:pageopacity="0"
     inkscape:pageshadow="2"
     inkscape:window-width="1916"
     inkscape:window-height="1040"
     id="namedview887"
     showgrid="false"
     inkscape:zoom="2.5326087"
     inkscape:cx="231.97425"
     inkscape:cy="40"
     inkscape:window-x="0"
     inkscape:window-y="18"
     inkscape:window-maximized="0"
     inkscape:current-layer="svg26" />
  <metadata
     id="metadata32">
    <rdf:RDF>
      <cc:Work
         rdf:about="">
        <dc:format>image/svg+xml</dc:format>
        <dc:type
           rdf:resource="http://purl.org/dc/dcmitype/StillImage" />
        <dc:title></dc:title>
      </cc:Work>
    </rdf:RDF>
  </metadata>
  <defs
     id="defs30" />
  <g
     id="g902"
     transform="translate(20,-20.00015)">
    <g
       transform="translate(0,40)"
       style="fill:#ffffff"
       id="g859">
      <path
         inkscape:connector-curvature="0"
         style="fill:#ffffff"
         d="m 117.88,43.4762 h 7.707 v 4.5093 c -1.782,1.206 -3.932,1.8876 -6.03,1.8876 -5.61,0 -10.381,-4.8239 -10.381,-10.5391 0,-5.6628 4.771,-10.4866 10.381,-10.4866 3.094,0 6.24,1.4681 8.18,3.88 l 6.554,-5.8201 c -3.67,-3.88 -9.176,-6.1871 -14.734,-6.1871 -10.643,0 -19.5571,8.4942 -19.5571,18.6138 0,10.1196 8.9141,18.6662 19.5571,18.6662 5.558,0 11.064,-2.307 14.734,-6.2395 V 36.7124 H 117.88 Z"
         id="path2" />
      <path
         inkscape:connector-curvature="0"
         style="fill:#ffffff"
         d="M 149.087,49.3488 V 21.3494 h -8.913 V 57.371 h 26.269 v -8.0222 z"
         id="path4" />
      <path
         inkscape:connector-curvature="0"
         style="fill:#ffffff"
         d="m 189.139,58.0002 c 10.539,0 19.401,-8.5466 19.401,-18.6662 0,-10.1196 -8.862,-18.6138 -19.401,-18.6138 -10.486,0 -19.348,8.4942 -19.348,18.6138 0,10.1196 8.862,18.6662 19.348,18.6662 z m 0,-8.1271 c -5.505,0 -10.172,-4.8239 -10.172,-10.5391 0,-5.6628 4.667,-10.4866 10.172,-10.4866 5.506,0 10.172,4.8238 10.172,10.4866 0,5.7152 -4.666,10.5391 -10.172,10.5391 z"
         id="path6" />
      <path
         inkscape:connector-curvature="0"
         style="fill:#ffffff"
         d="m 213.965,57.371 h 19.505 c 7.131,0 12.217,-3.9849 12.217,-9.7525 0,-3.9325 -2.464,-7.3407 -6.606,-9.1759 3.146,-1.5729 4.981,-4.4568 4.981,-8.0222 0,-5.2434 -4.614,-9.071 -11.273,-9.071 h -18.824 z m 8.914,-21.7597 v -6.6591 h 7.707 c 2.465,0 4.248,1.3633 4.248,3.3033 0,1.9401 -1.783,3.3558 -4.248,3.3558 z m 0,14.1569 v -7.2358 h 9.071 c 2.621,0 4.509,1.5206 4.509,3.6179 0,2.0974 -1.888,3.6179 -4.509,3.6179 z"
         id="path8" />
      <path
         inkscape:connector-curvature="0"
         style="fill:#ffffff"
         d="M 276.312,57.371 H 286.38 L 272.118,21.3494 H 262.05 L 247.789,57.371 h 10.067 l 2.097,-5.2433 h 14.262 z m -13.58,-12.2693 4.352,-11.0634 4.352,11.0634 z"
         id="path10" />
      <path
         inkscape:connector-curvature="0"
         style="fill:#ffffff"
         d="M 298.911,49.3488 V 21.3494 h -8.914 V 57.371 h 26.269 v -8.0222 z"
         id="path12" />
      <path
         inkscape:connector-curvature="0"
         style="fill:#ffffff"
         d="M 349.345,29.3717 V 21.3494 H 320.978 V 57.371 h 28.367 v -8.0222 h -19.4 v -6.3445 h 17.617 v -8.0222 h -17.617 v -5.6104 z"
         id="path14" />
      <path
         inkscape:connector-curvature="0"
         style="fill:#ffffff"
         d="m 380.411,57.371 h 10.067 L 376.216,21.3494 H 366.149 L 351.887,57.371 h 10.067 l 2.098,-5.2433 h 14.261 z m -13.58,-12.2693 4.351,-11.0634 4.352,11.0634 z"
         id="path16" />
      <path
         inkscape:connector-curvature="0"
         style="fill:#ffffff"
         d="m 394.306,57.371 h 8.966 v -9.805 l 4.142,-4.4568 10.119,14.2618 h 10.802 L 413.601,36.6599 427.286,21.3494 h -10.644 l -13.37,15.363 v -15.363 h -8.966 z"
         id="path18" />
      <path
         inkscape:connector-curvature="0"
         style="fill:#ffffff"
         d="m 445.581,58.0002 c 8.913,0 14.419,-4.5092 14.419,-11.745 0,-6.7639 -5.191,-9.071 -13.266,-10.8012 -5.348,-1.1536 -7.078,-1.8876 -7.078,-4.0898 0,-1.7828 1.625,-3.146 4.509,-3.146 3.356,0 6.974,1.3108 10.277,3.8276 l 4.562,-6.3969 c -3.828,-3.1984 -8.547,-4.9287 -14.577,-4.9287 -8.232,0 -13.79,4.6141 -13.79,11.5353 0,7.2358 5.715,9.3331 13.423,11.0634 5.243,1.2584 6.921,1.7303 6.921,3.8801 0,1.94 -1.73,3.3033 -5.086,3.3033 -4.404,0 -8.337,-1.6779 -11.85,-4.5617 l -5.033,6.0298 c 4.352,3.9325 10.172,6.0298 16.569,6.0298 z"
         id="path20" />
      <path
         inkscape:connector-curvature="0"
         style="clip-rule:evenodd;fill:#ffffff;fill-rule:evenodd"
         d="m 65.6676,3.05176e-4 h 7.529 c 3.7191,0 6.8033,2.923584824 6.8033,6.644514824 V 73.3558 c 0,3.6323 -2.9934,6.6445 -6.8033,6.6445 H 57.1408 l 5.1705,-14.175 C 62.8556,64.2306 62.0392,62.4588 60.4064,61.9272 60.1343,61.8386 59.8621,61.75 59.59,61.75 c -0.3628,0 -0.635,0 -0.9978,0.0886 -0.9978,0.2658 -1.8142,0.9745 -2.1771,1.9491 l -1.1792,2.9235 V 54.5739 c 0,-1.949 -1.4514,-3.5437 -3.3563,-3.8981 h -0.1814 c -0.1815,0 -0.3629,0 -0.5443,0 -0.1814,0 -0.2721,0 -0.4536,0 -0.0907,0 -0.1814,0 -0.2721,0 -0.0907,0 -0.1814,0 -0.2721,0.0886 -0.0907,0 -0.1814,0.0886 -0.2722,0.0886 h -0.0907 c -0.4535,0.1772 -0.9071,0.443 -1.3606,0.7974 v -0.7088 c 0,-0.9745 -0.4536,-1.8605 -1.0886,-2.5692 -0.0907,-0.0886 -0.1814,-0.1772 -0.1814,-0.1772 -0.1814,-0.1772 -0.4535,-0.3544 -0.7257,-0.5316 v -4.6954 c 0,-0.8859 -0.7256,-1.6833 -1.7235,-1.6833 h -7.3475 c -1.27,0 -2.0864,-1.2403 -1.5421,-2.392 L 50.6096,9.21407 C 53.6031,3.72126 59.4086,0.0888987 65.6676,3.05176e-4 Z M 60.6785,26.667 c 1.9049,0 3.447,-1.5061 3.447,-3.3666 0,-1.8604 -1.5421,-3.3665 -3.447,-3.3665 -1.9049,0 -3.447,1.5061 -3.447,3.3665 0,1.8605 1.5421,3.3666 3.447,3.3666 z"
         id="path22" />
      <path
         inkscape:connector-curvature="0"
         style="clip-rule:evenodd;fill:#ffffff;fill-rule:evenodd"
         d="M 47.8289,8.39103 C 48.668,5.03462 46.1507,0 41.9551,0 H 28.7105 C 22.2974,0 16.5348,3.62367 13.6535,9.38442 L 0.17654,37.0732 c -0.557668,1.115 0.278826,2.4158 1.48711,2.4158 h 5.94846 c 1.11534,0 1.95184,1.0221 1.58006,2.1371 l -1.58006,5.8536 c 0,0.0929 0.09294,0.1859 0.18589,0.1859 4.4613,0 7.9932,3.6236 7.9932,8.0836 v 0.7433 c 0,4.4599 -3.6248,8.0836 -7.9932,8.0836 H 4.63787 c -0.18589,0 -0.46472,0 -0.65061,0 C 3.42959,64.4832 2.87193,64.8549 2.68604,65.4124 0.641261,72.7527 6.125,80 13.6535,80 H 30.7553 V 61.0454 c 0,-1.6725 1.3942,-3.0663 3.0672,-3.0663 h 0.1859 0.0929 c 0.093,0 0.1859,0 0.2789,0 v -3.4378 c 0,-2.137 1.7659,-3.9025 3.9036,-3.9025 1.0224,0 1.9519,0.3716 2.6025,1.0221 v -0.6504 c 0,-1.5796 0.9294,-2.9733 2.3236,-3.5308 v -2.8804 h -5.4837 c -3.6249,0 -5.9485,-3.8095 -4.3684,-7.1544 z M 23.8774,26.7596 c 1.8589,0 3.346,-1.4866 3.346,-3.3449 0,-1.8583 -1.4871,-3.345 -3.346,-3.345 -1.8589,0 -3.346,1.4867 -3.346,3.345 0,1.7654 1.4871,3.3449 3.346,3.3449 z"
         id="path24" />
    </g>
  </g>
</svg>
