<?xml version="1.0" encoding="UTF-8" standalone="no"?>
<svg
   width="610"
   height="128"
   viewBox="0 0 610 128"
   fill="none"
   version="1.1"
   id="svg12"
   sodipodi:docname="globaleaks-logo-horizontal-default.svg"
   inkscape:version="1.3.1 (9b9bdc1480, 2023-11-25, custom)"
   xmlns:inkscape="http://www.inkscape.org/namespaces/inkscape"
   xmlns:sodipodi="http://sodipodi.sourceforge.net/DTD/sodipodi-0.dtd"
   xmlns="http://www.w3.org/2000/svg"
   xmlns:svg="http://www.w3.org/2000/svg">
  <defs
     id="defs12" />
  <sodipodi:namedview
     id="namedview12"
     pagecolor="#ffffff"
     bordercolor="#000000"
     borderopacity="0.25"
     inkscape:showpageshadow="2"
     inkscape:pageopacity="0.0"
     inkscape:pagecheckerboard="false"
     inkscape:deskcolor="#d1d1d1"
     inkscape:zoom="2.6159156"
     inkscape:cx="114.6826"
     inkscape:cy="44.343938"
     inkscape:window-width="1920"
     inkscape:window-height="1131"
     inkscape:window-x="0"
     inkscape:window-y="0"
     inkscape:window-maximized="1"
     inkscape:current-layer="svg12" />
  <rect
     style="fill:#ffffff;fill-opacity:0.986687;stroke-width:2.19591"
     id="rect14"
     width="610"
     height="128"
     x="0"
     y="0" />
  <g
     id="g4"
     transform="translate(20.02606,20)">
    <path
       fill-rule="evenodd"
       clip-rule="evenodd"
       d="M 71.376984,0 H 80.7593 C 84.736585,0 88,3.2667971 88,7.248231 V 80.751647 C 88,84.733081 84.736585,88 80.7593,88 H 62.198632 l 5.507012,-15.619573 c 0.61189,-1.735497 -0.305946,-3.675069 -2.039634,-4.287597 -0.305945,-0.10209 -0.509909,-0.204277 -0.815854,-0.204277 -0.305945,0 -0.713871,0 -1.019816,0.10209 -1.019817,0.204175 -1.937653,1.020982 -2.345579,2.143951 l -1.22378,3.266715 V 60.129861 c 0,-2.143849 -1.529726,-3.879244 -3.56936,-4.287597 h -0.203964 c -0.203962,0 -0.407926,0 -0.509907,0 -0.203964,0 -0.305946,0 -0.509909,0 -0.101978,0 -0.203964,0 -0.203964,0 -0.101977,0 -0.203963,0 -0.305944,0.101988 -0.101978,0 -0.203964,0.102091 -0.305945,0.102091 -0.509909,0.204176 -1.019817,0.510542 -1.427744,0.816806 v -0.816806 c 0,-1.122968 -0.509909,-2.041659 -1.121799,-2.756275 -0.101977,-0.10209 -0.101977,-0.102193 -0.203963,-0.204279 -0.203964,-0.204176 -0.509909,-0.408352 -0.815854,-0.51044 v -5.206494 c 0,-1.020881 -0.815853,-1.837585 -1.83567,-1.837585 h -7.85259 c -1.325762,0 -2.243598,-1.429233 -1.631707,-2.654289 L 55.569823,10.208805 C 58.42531,4.0835219 64.544211,0.10208805 71.376984,0 Z m -5.303048,29.401358 c 2.039635,0 3.671342,-1.633307 3.671342,-3.675068 0,-2.04176 -1.631707,-3.675271 -3.671342,-3.675271 -2.039633,0 -3.67134,1.633511 -3.67134,3.675271 -0.101978,1.939673 1.631707,3.675068 3.67134,3.675068 z"
       fill="#103253"
       id="path1-9"
       style="stroke-width:1.02035" />
    <path
       fill-rule="evenodd"
       clip-rule="evenodd"
       d="M 53.632069,6.3295305 C 54.039996,3.164801 51.592434,0 48.125057,0 H 31.502041 C 24.465306,0 18.14244,3.9814135 14.981008,10.310892 L 0.19370517,40.733131 c -0.61189013,1.225057 0.30593589,2.65429 1.63169583,2.65429 h 6.5268383 c 1.2237802,0 2.1415747,1.122968 1.7336887,2.348025 l -1.7336887,6.431546 c 0,0.102091 0.1019818,0.204177 0.2039634,0.204177 4.8950803,0 8.7703843,3.981434 8.7703843,8.88166 v 0.816704 c 0,4.900329 -3.977286,8.881661 -8.7703843,8.881661 H 5.088815 c -0.2039633,0 -0.5099084,0 -0.7138718,0 C 3.763053,70.849104 3.1511731,71.257458 2.9472097,71.869986 0.70361056,79.934942 6.7205323,87.897809 14.981008,87.897809 H 33.745639 V 67.071951 c 0,-1.837586 1.529726,-3.369009 3.365396,-3.369009 h 0.203963 0.101978 c 0.101977,0 0.203963,0 0.305945,0 v -3.777155 c 0,-2.348026 1.937652,-4.2878 4.283231,-4.2878 1.121799,0 2.141615,0.408351 2.855487,1.122968 v -0.714617 c 0,-1.735496 1.019817,-3.266816 2.549543,-3.879346 v -3.164728 h -6.01692 c -3.977286,0 -6.526828,-4.185611 -4.793139,-7.86078 L 52.408288,8.473359 C 52.714234,7.8608307 53.12216,7.0441468 53.632069,6.3295305 Z M 26.198994,29.401358 c 2.039634,0 3.671341,-1.633307 3.671341,-3.675068 0,-2.04176 -1.631707,-3.675271 -3.671341,-3.675271 -2.039634,0 -3.671341,1.633511 -3.671341,3.675271 0,1.939673 1.631707,3.675068 3.671341,3.675068 z"
       fill="#3679bb"
       id="path2-1"
       style="stroke-width:1.02035" />
  </g>
  <path
     d="m 163.96013,69.818935 h 9.59628 v 5.614847 c -2.24594,1.531323 -4.90023,2.34813 -7.55452,2.34813 -6.94199,0 -12.96519,-6.023303 -12.96519,-13.169472 0,-7.044082 5.92111,-13.06718 12.96519,-13.06718 3.87935,0 7.7587,1.837586 10.20882,4.798142 l 8.16705,-7.248258 c -4.59397,-4.798142 -11.43387,-7.65661 -18.37587,-7.65661 -13.27146,0 -24.39906,10.617064 -24.39906,23.173906 0,12.556841 11.1276,23.276198 24.39906,23.276198 6.942,0 13.7819,-2.858468 18.37587,-7.758699 V 61.345721 h -20.41763 z"
     fill="#103253"
     id="path1"
     style="stroke-width:1.02088" />
  <path
     d="M 202.85571,77.169383 V 42.255137 H 191.7281 V 87.07183 h 32.66821 V 77.067295 h -21.5406 z"
     fill="#103253"
     id="path2"
     style="stroke-width:1.02088" />
  <path
     d="m 252.67472,87.990726 c 13.16937,0 24.19489,-10.617269 24.19489,-23.276198 0,-12.556841 -11.02552,-23.173906 -24.19489,-23.173906 -13.06728,0 -24.0928,10.617065 -24.0928,23.173906 0,12.556841 11.02552,23.276198 24.0928,23.276198 z m 0,-10.208814 c -6.8399,0 -12.65893,-6.023303 -12.65893,-13.169472 0,-7.044082 5.81903,-13.06718 12.65893,-13.06718 6.83991,0 12.65893,6.023098 12.65893,13.06718 0,7.248258 -5.81902,13.169472 -12.65893,13.169472 z"
     fill="#103253"
     id="path3"
     style="stroke-width:1.02088" />
  <path
     d="m 283.60743,87.173919 h 24.29698 c 8.88166,0 15.21113,-5.002217 15.21113,-12.148387 0,-4.900231 -3.06265,-9.188035 -8.26914,-11.433974 3.87935,-1.939674 6.22738,-5.512657 6.22738,-10.004535 0,-6.533641 -5.71694,-11.331886 -14.08817,-11.331886 h -23.48027 v 44.918782 z m 11.12761,-27.155446 v -8.269037 h 9.59628 c 3.06265,0 5.30858,1.735498 5.30858,4.083526 0,2.348027 -2.24593,4.185511 -5.30858,4.185511 z m 0,17.661351 v -8.983859 h 11.33178 c 3.26682,0 5.61485,1.939777 5.61485,4.49198 0,2.552204 -2.34803,4.491879 -5.61485,4.491879 z"
     fill="#103253"
     id="path4"
     style="stroke-width:1.02088" />
  <path
     d="m 361.19442,87.173919 h 12.55684 L 355.98792,42.357327 h -12.55684 l -17.76334,44.816592 h 12.55684 l 2.6543,-6.533539 h 17.76333 z m -16.84455,-15.313221 5.41067,-13.781899 5.41067,13.781899 z"
     fill="#103253"
     id="path5"
     style="stroke-width:1.02088" />
  <path
     d="M 389.37074,77.169383 V 42.255137 H 378.24313 V 87.07183 h 32.66821 V 77.067295 h -21.5406 z"
     fill="#103253"
     id="path6"
     style="stroke-width:1.02088" />
  <path
     d="m 452.15495,52.259877 v -10.00474 h -35.3225 V 87.07183 h 35.3225 V 77.067295 h -24.19489 v -7.860889 h 21.94895 V 59.20187 h -21.94895 v -6.941993 z"
     fill="#103253"
     id="path7"
     style="stroke-width:1.02088" />
  <path
     d="m 490.84635,87.173919 h 12.55684 L 485.63986,42.357327 h -12.55684 l -17.76334,44.816592 h 12.55684 l 2.65429,-6.533539 h 17.76334 z m -16.84454,-15.313221 5.41067,-13.781899 5.41067,13.781899 z"
     fill="#103253"
     id="path8"
     style="stroke-width:1.02088" />
  <path
     d="m 508.20134,87.173919 h 11.1276 V 74.923342 l 5.2065,-5.512658 12.55684,17.763235 h 13.47563 L 532.19205,61.345721 549.24077,42.255137 H 535.96931 L 519.32894,61.345721 V 42.255137 h -11.1276 z"
     fill="#103253"
     id="path9"
     style="stroke-width:1.02088" />
  <path
     d="m 572.00642,87.990726 c 11.12761,0 17.96752,-5.61495 17.96752,-14.598706 0,-8.473316 -6.43156,-11.331682 -16.53828,-13.475533 -6.63573,-1.429234 -8.77958,-2.348027 -8.77958,-5.104407 0,-2.245939 2.04176,-3.879451 5.61485,-3.879451 4.18561,0 8.67749,1.633512 12.76101,4.798245 l 5.71694,-7.962978 c -4.79814,-3.981437 -10.61717,-6.125288 -18.17169,-6.125288 -10.20881,0 -17.15081,5.716936 -17.15081,14.394428 0,8.983756 7.14617,11.638048 16.74246,13.781899 6.53364,1.531322 8.5754,2.143953 8.5754,4.798244 0,2.450116 -2.14385,4.083526 -6.32946,4.083526 -5.51276,0 -10.41299,-2.041763 -14.80278,-5.716936 l -6.22738,7.55442 c 5.41067,4.798143 12.65893,7.452537 20.6218,7.452537 z"
     fill="#103253"
     id="path10"
     style="stroke-width:1.02088" />
</svg>
