<?xml version="1.0" encoding="UTF-8" standalone="no"?>
<svg
   width="88"
   height="88"
   viewBox="0 0 88 88"
   fill="none"
   version="1.1"
   id="svg2"
   sodipodi:docname="globaleaks-logo-icon-white.svg"
   inkscape:version="1.3.1 (9b9bdc1480, 2023-11-25, custom)"
   xmlns:inkscape="http://www.inkscape.org/namespaces/inkscape"
   xmlns:sodipodi="http://sodipodi.sourceforge.net/DTD/sodipodi-0.dtd"
   xmlns="http://www.w3.org/2000/svg"
   xmlns:svg="http://www.w3.org/2000/svg">
  <defs
     id="defs2" />
  <sodipodi:namedview
     id="namedview2"
     pagecolor="#ffffff"
     bordercolor="#000000"
     borderopacity="0.25"
     inkscape:showpageshadow="2"
     inkscape:pageopacity="0.0"
     inkscape:pagecheckerboard="0"
     inkscape:deskcolor="#d1d1d1"
     inkscape:zoom="7.2011104"
     inkscape:cx="43.604386"
     inkscape:cy="43.604386"
     inkscape:window-width="1920"
     inkscape:window-height="1131"
     inkscape:window-x="0"
     inkscape:window-y="0"
     inkscape:window-maximized="1"
     inkscape:current-layer="svg2" />
  <g
     id="g4"
     style="fill:#ffffff">
    <path
       fill-rule="evenodd"
       clip-rule="evenodd"
       d="M 71.376984,0 H 80.7593 C 84.736585,0 88,3.2667971 88,7.248231 V 80.751647 C 88,84.733081 84.736585,88 80.7593,88 H 62.198632 l 5.507012,-15.619573 c 0.61189,-1.735497 -0.305946,-3.675069 -2.039634,-4.287597 -0.305945,-0.10209 -0.509909,-0.204277 -0.815854,-0.204277 -0.305945,0 -0.713871,0 -1.019816,0.10209 -1.019817,0.204175 -1.937653,1.020982 -2.345579,2.143951 l -1.22378,3.266715 V 60.129861 c 0,-2.143849 -1.529726,-3.879244 -3.56936,-4.287597 h -0.203964 c -0.203962,0 -0.407926,0 -0.509907,0 -0.203964,0 -0.305946,0 -0.509909,0 -0.101978,0 -0.203964,0 -0.203964,0 -0.101977,0 -0.203963,0 -0.305944,0.101988 -0.101978,0 -0.203964,0.102091 -0.305945,0.102091 -0.509909,0.204176 -1.019817,0.510542 -1.427744,0.816806 v -0.816806 c 0,-1.122968 -0.509909,-2.041659 -1.121799,-2.756275 -0.101977,-0.10209 -0.101977,-0.102193 -0.203963,-0.204279 -0.203964,-0.204176 -0.509909,-0.408352 -0.815854,-0.51044 v -5.206494 c 0,-1.020881 -0.815853,-1.837585 -1.83567,-1.837585 h -7.85259 c -1.325762,0 -2.243598,-1.429233 -1.631707,-2.654289 L 55.569823,10.208805 C 58.42531,4.0835219 64.544211,0.10208805 71.376984,0 Z m -5.303048,29.401358 c 2.039635,0 3.671342,-1.633307 3.671342,-3.675068 0,-2.04176 -1.631707,-3.675271 -3.671342,-3.675271 -2.039633,0 -3.67134,1.633511 -3.67134,3.675271 -0.101978,1.939673 1.631707,3.675068 3.67134,3.675068 z"
       fill="#103253"
       id="path1"
       style="stroke-width:1.02035;fill:#ffffff" />
    <path
       fill-rule="evenodd"
       clip-rule="evenodd"
       d="M 53.632069,6.3295305 C 54.039996,3.164801 51.592434,0 48.125057,0 H 31.502041 C 24.465306,0 18.14244,3.9814135 14.981008,10.310892 L 0.19370517,40.733131 c -0.61189013,1.225057 0.30593589,2.65429 1.63169583,2.65429 h 6.5268383 c 1.2237802,0 2.1415747,1.122968 1.7336887,2.348025 l -1.7336887,6.431546 c 0,0.102091 0.1019818,0.204177 0.2039634,0.204177 4.8950803,0 8.7703843,3.981434 8.7703843,8.88166 v 0.816704 c 0,4.900329 -3.977286,8.881661 -8.7703843,8.881661 H 5.088815 c -0.2039633,0 -0.5099084,0 -0.7138718,0 C 3.763053,70.849104 3.1511731,71.257458 2.9472097,71.869986 0.70361056,79.934942 6.7205323,87.897809 14.981008,87.897809 H 33.745639 V 67.071951 c 0,-1.837586 1.529726,-3.369009 3.365396,-3.369009 h 0.203963 0.101978 c 0.101977,0 0.203963,0 0.305945,0 v -3.777155 c 0,-2.348026 1.937652,-4.2878 4.283231,-4.2878 1.121799,0 2.141615,0.408351 2.855487,1.122968 v -0.714617 c 0,-1.735496 1.019817,-3.266816 2.549543,-3.879346 v -3.164728 h -6.01692 c -3.977286,0 -6.526828,-4.185611 -4.793139,-7.86078 L 52.408288,8.473359 C 52.714234,7.8608307 53.12216,7.0441468 53.632069,6.3295305 Z M 26.198994,29.401358 c 2.039634,0 3.671341,-1.633307 3.671341,-3.675068 0,-2.04176 -1.631707,-3.675271 -3.671341,-3.675271 -2.039634,0 -3.671341,1.633511 -3.671341,3.675271 0,1.939673 1.631707,3.675068 3.671341,3.675068 z"
       fill="#3679bb"
       id="path2"
       style="stroke-width:1.02035;fill:#ffffff" />
  </g>
</svg>
